<?xml version="1.0" encoding="UTF-8" ?>
<!DOCTYPE svg PUBLIC "-//W3C//DTD SVG 1.1//EN" "http://www.w3.org/Graphics/SVG/1.1/DTD/svg11.dtd">
<svg width="512pt" height="512pt" viewBox="0 0 512 512" version="1.1" preserveAspectRatio="none" xmlns="http://www.w3.org/2000/svg">
<g id="#000000ff">
<path fill="#000000" opacity="1.00" d=" M 0.00 0.00 L 512.00 0.00 L 512.00 512.00 L 0.00 512.00 L 0.00 0.00 M 105.01 69.01 C 104.99 144.01 104.99 219.00 105.01 294.00 C 119.73 293.95 134.46 294.01 149.18 294.10 C 146.29 299.65 143.55 305.28 140.91 310.95 C 128.94 310.98 116.97 311.01 105.00 311.03 C 105.00 317.01 105.01 322.99 104.99 328.98 C 113.97 328.98 122.96 328.98 131.94 329.02 C 127.19 339.06 122.27 349.03 117.52 359.07 C 113.09 350.79 108.81 342.42 105.09 333.80 C 104.88 370.19 105.03 406.59 105.01 442.99 C 133.65 443.00 162.28 443.06 190.92 442.96 C 213.66 400.60 235.21 357.61 257.13 314.82 C 264.78 330.37 273.31 345.47 281.00 361.00 C 294.50 388.61 309.52 415.43 323.26 442.92 C 351.17 443.11 379.08 442.98 406.99 442.99 C 407.01 367.66 407.01 292.34 406.99 217.02 C 393.59 217.03 380.21 217.01 366.82 216.89 C 369.75 211.36 372.41 205.70 375.01 200.02 C 385.67 200.03 396.33 199.97 407.00 199.97 C 406.99 193.99 406.98 188.00 407.01 182.02 C 399.33 182.01 391.65 181.99 383.98 181.96 C 388.76 171.91 393.76 161.98 398.48 151.91 C 401.34 157.33 403.96 162.86 406.82 168.28 C 407.23 135.19 406.91 102.10 406.99 69.01 C 379.33 68.99 351.66 68.97 323.99 69.01 C 316.86 80.27 311.45 92.47 305.10 104.15 C 288.88 135.11 273.58 166.56 256.87 197.26 C 235.18 154.37 212.72 111.87 190.96 69.01 C 162.31 68.97 133.66 68.99 105.01 69.01 Z" />
<path fill="#000000" opacity="1.00" d=" M 353.35 125.12 C 362.34 125.06 371.33 125.05 380.32 125.07 C 371.10 140.87 361.71 156.57 352.30 172.26 C 344.83 187.50 335.79 201.89 327.96 216.94 C 333.84 216.97 339.72 216.99 345.60 217.00 C 343.94 240.00 346.13 263.00 346.02 286.00 C 345.94 316.09 348.27 346.14 347.88 376.24 C 326.63 335.93 304.41 296.14 282.57 256.15 C 306.39 212.59 330.40 169.14 353.35 125.12 Z" />
<path fill="#000000" opacity="1.00" d=" M 168.21 139.75 C 189.16 178.82 210.88 217.48 231.65 256.65 C 218.81 279.26 206.94 302.42 194.08 325.03 C 183.84 345.62 171.99 365.35 161.85 385.98 C 153.13 385.97 144.42 385.94 135.72 385.90 C 146.71 366.01 159.36 347.07 170.00 326.98 C 176.18 316.25 182.47 305.57 189.05 295.07 C 182.38 295.01 175.71 294.97 169.04 294.93 C 169.34 243.19 167.50 191.49 168.21 139.75 Z" />
</g>
<g id="#fefefeff">
<path fill="#fefefe" opacity="1.00" d=" M 105.01 69.01 C 133.66 68.99 162.31 68.97 190.96 69.01 C 212.72 111.87 235.18 154.37 256.87 197.26 C 273.58 166.56 288.88 135.11 305.10 104.15 C 311.45 92.47 316.86 80.27 323.99 69.01 C 351.66 68.97 379.33 68.99 406.99 69.01 C 406.91 102.10 407.23 135.19 406.82 168.28 C 403.96 162.86 401.34 157.33 398.48 151.91 C 393.76 161.98 388.76 171.91 383.98 181.96 C 391.65 181.99 399.33 182.01 407.01 182.02 C 406.98 188.00 406.99 193.99 407.00 199.97 C 396.33 199.97 385.67 200.03 375.01 200.02 C 372.41 205.70 369.75 211.36 366.82 216.89 C 380.21 217.01 393.59 217.03 406.99 217.02 C 407.01 292.34 407.01 367.66 406.99 442.99 C 379.08 442.98 351.17 443.11 323.26 442.92 C 309.52 415.43 294.50 388.61 281.00 361.00 C 273.31 345.47 264.78 330.37 257.13 314.82 C 235.21 357.61 213.66 400.60 190.92 442.96 C 162.28 443.06 133.65 443.00 105.01 442.99 C 105.03 406.59 104.88 370.19 105.09 333.80 C 108.81 342.42 113.09 350.79 117.52 359.07 C 122.27 349.03 127.19 339.06 131.94 329.02 C 122.96 328.98 113.97 328.98 104.99 328.98 C 105.01 322.99 105.00 317.01 105.00 311.03 C 116.97 311.01 128.94 310.98 140.91 310.95 C 143.55 305.28 146.29 299.65 149.18 294.10 C 134.46 294.01 119.73 293.95 105.01 294.00 C 104.99 219.00 104.99 144.01 105.01 69.01 M 353.35 125.12 C 330.40 169.14 306.39 212.59 282.57 256.15 C 304.41 296.14 326.63 335.93 347.88 376.24 C 348.27 346.14 345.94 316.09 346.02 286.00 C 346.13 263.00 343.94 240.00 345.60 217.00 C 339.72 216.99 333.84 216.97 327.96 216.94 C 335.79 201.89 344.83 187.50 352.30 172.26 C 361.71 156.57 371.10 140.87 380.32 125.07 C 371.33 125.05 362.34 125.06 353.35 125.12 M 168.21 139.75 C 167.50 191.49 169.34 243.19 169.04 294.93 C 175.71 294.97 182.38 295.01 189.05 295.07 C 182.47 305.57 176.18 316.25 170.00 326.98 C 159.36 347.07 146.71 366.01 135.72 385.90 C 144.42 385.94 153.13 385.97 161.85 385.98 C 171.99 365.35 183.84 345.62 194.08 325.03 C 206.94 302.42 218.81 279.26 231.65 256.65 C 210.88 217.48 189.16 178.82 168.21 139.75 Z" />
</g>
</svg>
