<?xml version="1.0" encoding="UTF-8" ?>
<!DOCTYPE svg PUBLIC "-//W3C//DTD SVG 1.1//EN" "http://www.w3.org/Graphics/SVG/1.1/DTD/svg11.dtd">
<svg width="512pt" height="512pt" viewBox="0 0 512 512" version="1.1" xmlns="http://www.w3.org/2000/svg">
<g id="#ffffffff">
<path fill="#ffffff" opacity="1.00" d=" M 0.00 0.00 L 40.82 0.00 L 41.89 1.13 C 38.17 1.46 34.57 2.59 31.18 4.11 C 19.02 8.99 9.00 19.04 4.10 31.17 C 2.70 34.39 1.54 37.76 1.21 41.28 L 0.00 41.40 L 0.00 0.00 Z" />
<path fill="#ffffff" opacity="1.00" d=" M 471.27 0.00 L 512.00 0.00 L 512.00 37.81 C 510.15 36.01 510.09 33.32 508.89 31.17 C 504.02 19.01 493.96 9.01 481.84 4.10 C 478.56 2.05 474.02 2.54 471.27 0.00 Z" />
<path fill="#ffffff" opacity="1.00" d=" M 104.62 69.49 C 133.56 69.64 162.52 69.55 191.47 69.53 C 191.48 70.32 191.49 71.89 191.50 72.67 L 192.82 72.44 C 192.68 72.95 192.39 73.96 192.25 74.47 L 193.66 74.37 C 193.58 74.91 193.41 75.99 193.33 76.53 L 194.84 76.55 C 194.68 77.04 194.37 78.01 194.21 78.50 L 195.83 78.25 L 194.53 79.77 L 196.39 79.25 C 196.43 80.10 196.51 81.81 196.56 82.66 L 197.82 82.36 C 197.71 82.86 197.48 83.86 197.37 84.36 L 198.71 84.46 C 198.64 84.96 198.50 85.97 198.43 86.47 L 199.79 86.38 C 199.70 86.91 199.52 87.97 199.44 88.50 L 200.79 88.37 L 200.41 89.86 L 201.91 89.40 C 201.69 89.90 201.25 90.91 201.03 91.41 L 202.65 91.47 C 202.55 91.99 202.36 93.01 202.26 93.53 L 203.64 93.47 C 203.54 93.98 203.35 95.00 203.25 95.52 L 204.82 95.53 C 204.65 96.02 204.31 97.00 204.14 97.50 L 205.66 97.35 L 205.09 98.91 L 206.40 98.24 C 206.42 99.11 206.46 100.83 206.47 101.69 L 207.83 101.42 C 207.68 101.94 207.39 102.96 207.24 103.47 L 208.78 103.53 L 208.06 105.87 L 209.80 104.09 C 209.72 104.98 209.57 106.76 209.50 107.65 L 210.82 107.38 C 210.70 107.91 210.45 108.97 210.33 109.50 L 211.87 109.21 L 210.65 110.69 L 212.38 110.25 C 212.43 111.12 212.53 112.86 212.59 113.73 L 213.92 113.35 L 213.20 114.86 L 214.75 114.42 C 214.58 114.94 214.23 115.99 214.05 116.51 L 215.66 116.52 C 215.53 117.05 215.28 118.10 215.15 118.63 L 216.58 118.44 C 216.49 118.98 216.32 120.07 216.24 120.62 L 217.70 120.46 C 217.55 120.98 217.24 122.03 217.09 122.55 L 218.47 122.43 C 218.50 123.23 218.57 124.81 218.60 125.61 L 219.89 125.41 L 219.34 126.95 L 220.88 126.37 C 220.69 126.90 220.29 127.96 220.10 128.49 L 221.63 128.47 C 221.54 128.99 221.35 130.03 221.26 130.54 L 222.66 130.47 C 222.56 131.00 222.36 132.05 222.26 132.58 L 223.69 132.43 C 223.59 132.94 223.40 133.98 223.30 134.50 L 224.69 134.50 C 224.61 135.00 224.45 136.01 224.37 136.52 L 225.69 136.37 C 225.60 136.90 225.42 137.97 225.33 138.50 L 226.77 138.45 C 226.65 138.95 226.41 139.94 226.29 140.43 L 227.70 140.45 C 227.60 140.96 227.41 141.97 227.31 142.47 L 228.71 142.41 C 228.62 142.93 228.45 143.96 228.37 144.48 L 229.74 144.44 C 229.66 144.95 229.51 145.97 229.44 146.48 L 230.79 146.49 C 230.68 146.99 230.46 147.99 230.35 148.49 L 231.76 148.40 C 231.66 148.95 231.46 150.04 231.36 150.59 L 232.76 150.17 L 232.08 151.69 L 233.46 151.36 C 233.49 152.20 233.56 153.87 233.59 154.70 L 235.73 154.32 L 233.95 156.09 L 235.85 155.48 C 235.66 155.99 235.27 157.02 235.07 157.54 L 236.67 157.39 C 236.55 157.93 236.33 159.00 236.21 159.53 L 237.56 159.42 C 237.52 159.98 237.43 161.08 237.38 161.64 L 238.70 161.39 C 238.58 161.91 238.33 162.96 238.21 163.48 L 239.74 163.50 C 239.62 164.00 239.37 165.01 239.25 165.52 L 240.67 165.52 C 240.57 166.03 240.37 167.07 240.28 167.58 L 241.67 167.40 C 241.57 167.93 241.37 168.99 241.27 169.52 L 242.77 169.54 C 242.63 170.02 242.35 170.98 242.22 171.46 L 243.68 171.48 C 243.58 171.99 243.39 173.00 243.29 173.50 L 244.71 173.41 C 244.60 173.94 244.39 174.99 244.28 175.52 L 245.72 175.48 C 245.61 175.98 245.39 176.98 245.28 177.49 L 246.71 177.45 C 246.59 177.94 246.37 178.93 246.25 179.42 L 247.65 179.52 C 247.56 180.02 247.39 181.00 247.31 181.50 L 248.75 181.32 L 247.91 182.72 L 249.42 182.27 C 249.45 183.12 249.50 184.81 249.52 185.66 L 250.83 185.38 C 250.71 185.90 250.45 186.95 250.33 187.47 L 251.77 187.39 L 251.10 188.83 L 252.51 188.35 C 252.51 189.13 252.51 190.70 252.51 191.48 L 253.88 191.43 L 253.29 192.81 L 254.82 192.45 C 254.62 192.98 254.22 194.02 254.03 194.54 L 255.48 194.27 C 255.49 195.12 255.52 196.82 255.53 197.67 L 256.43 197.35 L 256.99 199.75 L 257.62 197.44 L 258.66 197.66 C 258.64 196.79 258.59 195.06 258.56 194.19 L 260.33 194.83 L 259.21 193.31 L 260.72 193.49 C 260.59 192.99 260.34 191.99 260.21 191.49 L 261.71 191.46 C 261.61 190.95 261.41 189.94 261.31 189.44 L 262.70 189.48 C 262.61 188.98 262.43 187.98 262.34 187.48 L 263.77 187.48 C 263.63 186.98 263.37 186.00 263.24 185.50 L 264.76 185.47 C 264.65 184.97 264.41 183.99 264.29 183.50 L 265.68 183.53 C 265.59 183.03 265.41 182.02 265.33 181.52 L 266.79 181.47 C 266.66 180.98 266.41 180.00 266.28 179.51 L 267.85 179.47 C 267.71 178.97 267.43 177.99 267.29 177.50 L 268.71 177.55 C 268.63 177.02 268.49 175.94 268.41 175.41 L 269.89 175.55 C 269.71 175.01 269.36 173.92 269.18 173.37 L 270.72 173.89 L 270.07 172.44 L 271.54 172.52 C 271.48 171.98 271.35 170.90 271.29 170.37 L 272.65 170.45 C 272.56 169.96 272.39 168.97 272.30 168.47 L 273.67 168.42 C 273.56 167.92 273.36 166.93 273.26 166.43 L 274.68 166.54 C 274.60 165.99 274.43 164.91 274.34 164.36 L 275.68 164.50 C 275.59 164.00 275.41 162.99 275.32 162.49 L 276.75 162.50 C 276.63 162.01 276.38 161.02 276.26 160.52 L 277.80 160.50 C 277.67 159.99 277.41 158.99 277.28 158.49 L 278.71 158.55 C 278.62 158.03 278.43 157.00 278.34 156.49 L 279.80 156.47 C 279.66 155.96 279.38 154.94 279.24 154.43 L 280.64 154.64 C 280.60 154.07 280.50 152.94 280.45 152.38 L 281.78 152.54 C 281.66 152.03 281.42 151.01 281.30 150.50 L 282.77 150.55 C 282.65 150.02 282.41 148.95 282.29 148.42 L 283.69 148.61 C 283.61 148.08 283.45 147.03 283.37 146.50 L 284.78 146.54 C 284.65 146.02 284.40 144.98 284.27 144.46 L 285.71 144.59 C 285.64 144.03 285.50 142.90 285.43 142.34 L 286.76 142.61 C 286.67 142.07 286.49 140.98 286.40 140.44 L 287.84 140.54 C 287.70 140.03 287.41 139.01 287.27 138.51 L 288.87 138.48 C 288.72 137.98 288.42 137.00 288.27 136.50 L 289.64 136.59 C 289.60 136.03 289.52 134.92 289.48 134.36 L 291.22 134.49 C 290.91 133.99 290.28 133.00 289.96 132.50 L 292.00 133.14 L 290.43 131.43 L 292.36 131.72 C 292.42 130.88 292.54 129.20 292.60 128.36 L 293.95 128.58 C 293.77 128.03 293.40 126.93 293.22 126.38 L 294.71 126.86 L 294.24 125.38 L 295.67 125.49 C 295.56 124.98 295.32 123.96 295.21 123.44 L 296.63 123.48 C 296.56 122.96 296.41 121.92 296.34 121.39 L 297.72 121.45 C 297.58 120.95 297.31 119.94 297.18 119.44 L 298.48 119.65 C 298.52 118.80 298.60 117.09 298.63 116.24 L 300.47 116.82 L 299.24 115.27 L 300.85 115.50 C 300.68 115.01 300.33 114.05 300.15 113.57 L 301.67 113.54 C 301.60 112.98 301.46 111.87 301.39 111.31 L 302.69 111.56 C 302.60 111.04 302.41 110.01 302.31 109.49 L 303.79 109.48 C 303.64 108.95 303.34 107.90 303.19 107.37 L 304.60 107.76 L 304.18 106.34 L 305.35 106.48 C 305.41 105.69 305.52 104.09 305.57 103.30 L 307.20 103.57 C 306.93 103.06 306.39 102.05 306.12 101.54 L 307.71 101.59 C 307.64 101.03 307.50 99.91 307.44 99.35 L 308.75 99.66 C 308.67 99.09 308.52 97.96 308.44 97.39 L 310.35 97.55 C 310.03 97.05 309.41 96.04 309.09 95.54 L 310.75 95.83 L 310.22 94.42 L 311.60 94.54 C 311.53 94.00 311.38 92.91 311.30 92.37 L 312.64 92.53 C 312.54 92.01 312.36 90.99 312.27 90.48 L 313.61 90.49 C 313.52 89.97 313.35 88.93 313.26 88.41 L 314.63 88.49 C 314.55 87.96 314.39 86.91 314.31 86.39 L 315.68 86.44 C 315.58 85.95 315.37 84.96 315.27 84.47 L 316.64 84.49 C 316.56 83.96 316.39 82.91 316.31 82.39 L 317.70 82.53 C 317.60 82.02 317.40 81.00 317.31 80.49 L 318.74 80.46 C 318.61 79.98 318.36 79.02 318.23 78.54 L 319.77 78.49 C 319.64 77.99 319.38 76.98 319.25 76.48 L 320.77 76.53 C 320.66 75.99 320.45 74.93 320.34 74.40 L 321.87 74.54 C 321.54 74.02 320.88 72.98 320.55 72.46 L 322.55 72.77 C 322.55 71.96 322.56 70.33 322.56 69.52 C 350.83 69.57 379.11 69.62 407.39 69.50 C 407.06 97.31 407.34 125.13 407.25 152.95 C 407.32 156.82 407.06 160.70 407.43 164.56 L 406.65 164.38 C 406.59 165.50 406.47 167.74 406.41 168.86 C 405.00 167.46 405.90 165.11 405.54 163.35 L 404.11 163.50 C 404.28 163.00 404.61 162.00 404.78 161.50 L 403.27 161.50 C 403.38 161.00 403.59 160.01 403.70 159.51 L 402.25 159.53 C 402.38 159.01 402.65 157.95 402.79 157.42 L 401.56 157.82 C 401.50 156.96 401.38 155.24 401.32 154.39 C 400.89 154.44 400.02 154.54 399.59 154.60 C 399.46 153.39 399.21 150.97 399.09 149.76 L 398.26 152.55 L 396.72 152.54 C 397.01 153.03 397.59 154.02 397.88 154.51 L 396.34 154.40 L 396.74 155.87 L 395.51 155.26 C 395.52 156.13 395.53 157.87 395.54 158.73 L 394.33 158.44 L 394.64 159.76 L 393.48 159.35 C 393.47 160.19 393.46 161.86 393.45 162.70 L 391.83 162.28 L 392.84 163.71 L 391.32 163.55 C 391.44 164.06 391.68 165.08 391.81 165.59 L 390.53 165.38 C 390.54 166.21 390.56 167.87 390.57 168.70 L 389.35 168.52 C 389.43 169.03 389.59 170.07 389.67 170.58 L 388.31 170.55 C 388.43 171.06 388.65 172.08 388.77 172.59 L 387.51 172.24 C 387.49 173.08 387.46 174.76 387.45 175.61 C 387.00 175.58 386.12 175.53 385.67 175.50 C 385.58 176.90 385.49 178.31 385.39 179.72 L 384.35 179.14 C 384.30 179.82 384.22 181.17 384.18 181.85 C 387.92 181.69 391.66 181.76 395.41 181.71 L 396.06 183.06 L 396.55 181.61 C 398.53 181.81 400.53 181.80 402.52 181.63 L 403.00 183.19 L 403.50 181.62 C 405.05 181.27 406.32 181.61 407.34 182.66 C 407.19 188.31 407.19 193.97 407.34 199.62 C 396.33 199.53 385.32 199.75 374.32 199.50 L 374.64 200.71 L 373.18 200.47 C 373.33 200.98 373.63 201.99 373.78 202.49 L 372.31 202.48 C 372.41 203.00 372.62 204.05 372.72 204.57 L 371.42 204.34 C 371.43 205.74 371.44 207.14 371.46 208.55 C 371.01 208.50 370.10 208.40 369.64 208.35 C 369.59 209.20 369.49 210.89 369.43 211.74 L 368.05 211.41 C 368.24 211.95 368.61 213.01 368.80 213.55 L 367.45 213.38 L 367.58 214.75 L 366.51 214.23 C 366.45 214.88 366.33 216.18 366.27 216.83 C 379.99 216.50 393.75 217.10 407.45 216.53 C 406.98 231.65 407.38 246.82 407.25 261.96 C 407.25 320.31 407.25 378.65 407.25 437.00 C 407.20 439.15 407.19 441.31 407.46 443.46 C 380.22 443.05 352.94 443.31 325.69 443.33 C 324.84 442.49 323.80 442.21 322.58 442.48 C 322.58 441.67 322.58 440.04 322.58 439.23 L 321.24 439.59 C 321.38 439.06 321.65 438.00 321.79 437.47 L 320.30 437.55 C 320.43 437.04 320.68 436.02 320.80 435.51 L 319.25 435.50 C 319.38 435.00 319.64 434.00 319.77 433.50 L 318.29 433.49 C 318.39 432.99 318.59 431.99 318.70 431.49 L 317.31 431.54 C 317.41 431.03 317.60 430.00 317.69 429.49 L 316.28 429.58 C 316.37 429.06 316.57 428.03 316.66 427.52 L 315.28 427.54 C 315.38 427.05 315.56 426.07 315.65 425.58 L 314.29 425.58 C 314.38 425.07 314.54 424.04 314.63 423.52 L 313.25 423.59 C 313.34 423.07 313.52 422.04 313.61 421.52 L 312.25 421.51 C 312.35 421.03 312.55 420.05 312.65 419.56 L 311.26 419.54 C 311.35 419.03 311.53 417.99 311.62 417.48 L 310.18 417.56 L 310.73 416.15 L 309.06 416.48 C 309.37 415.98 310.00 414.98 310.31 414.47 L 308.44 414.63 C 308.51 414.05 308.65 412.90 308.72 412.32 L 307.44 412.65 C 307.50 412.09 307.63 410.98 307.69 410.42 L 306.19 410.49 C 306.37 409.98 306.72 408.98 306.90 408.48 L 305.38 408.58 C 305.46 408.06 305.64 407.02 305.72 406.50 L 304.36 406.52 C 304.44 406.01 304.60 404.98 304.68 404.47 L 303.28 404.59 C 303.38 404.07 303.59 403.02 303.70 402.50 L 302.28 402.51 C 302.38 401.99 302.58 400.96 302.68 400.44 L 301.37 400.68 C 301.44 400.13 301.59 399.03 301.66 398.47 L 300.18 398.48 C 300.32 397.99 300.61 397.03 300.75 396.55 L 299.32 396.52 C 299.39 396.02 299.54 395.00 299.61 394.50 L 298.28 394.60 C 298.37 394.08 298.57 393.04 298.67 392.52 L 297.19 392.65 L 297.91 391.18 L 296.50 391.67 C 296.50 390.86 296.50 389.25 296.51 388.45 L 295.21 388.61 C 295.31 388.08 295.52 387.02 295.62 386.50 L 294.21 386.62 L 294.65 385.13 L 293.05 385.56 C 293.35 385.03 293.94 383.99 294.24 383.47 L 292.49 383.67 C 292.55 383.10 292.66 381.98 292.72 381.42 L 291.36 381.52 C 291.47 381.01 291.69 379.98 291.79 379.47 L 290.15 379.45 C 290.37 378.98 290.81 378.05 291.03 377.59 L 289.40 377.54 C 289.46 377.02 289.59 375.97 289.66 375.45 L 288.23 375.48 C 288.40 374.94 288.75 373.86 288.92 373.32 L 287.63 373.90 C 287.54 372.99 287.36 371.18 287.27 370.27 C 286.86 370.38 286.04 370.59 285.63 370.70 C 285.61 369.85 285.56 368.16 285.53 367.31 L 284.14 367.54 C 284.31 367.04 284.64 366.04 284.80 365.54 L 283.28 365.48 C 283.39 364.99 283.61 364.01 283.72 363.52 L 282.19 363.46 C 282.35 362.98 282.67 362.01 282.83 361.52 L 281.30 361.51 C 281.40 361.01 281.60 360.00 281.70 359.50 L 280.33 359.54 C 280.42 359.04 280.60 358.02 280.70 357.52 L 279.22 357.53 C 279.36 357.03 279.62 356.03 279.76 355.53 L 278.31 355.55 C 278.40 355.05 278.57 354.04 278.66 353.54 L 277.32 353.55 C 277.41 353.03 277.59 351.99 277.68 351.47 L 276.20 351.54 C 276.33 351.02 276.60 349.98 276.73 349.46 L 275.14 349.86 L 276.45 348.33 L 274.62 348.75 C 274.57 347.90 274.48 346.19 274.44 345.34 L 273.15 345.62 C 273.28 345.11 273.53 344.08 273.65 343.56 L 272.26 343.71 L 272.84 342.25 L 271.50 342.65 C 271.46 341.82 271.40 340.17 271.36 339.34 C 270.92 339.42 270.03 339.58 269.59 339.66 C 269.58 338.82 269.55 337.15 269.53 336.31 L 268.18 336.55 C 268.33 336.05 268.63 335.05 268.78 334.55 L 267.32 334.54 C 267.42 334.04 267.62 333.04 267.72 332.55 L 266.28 332.54 C 266.38 332.04 266.58 331.03 266.68 330.52 L 265.26 330.54 C 265.35 330.04 265.53 329.02 265.62 328.52 L 264.29 328.52 C 264.37 328.01 264.53 326.98 264.61 326.46 L 263.27 326.65 C 263.36 326.10 263.53 325.01 263.61 324.47 L 262.27 324.55 C 262.36 324.06 262.54 323.08 262.63 322.59 L 261.31 322.59 C 261.38 322.07 261.51 321.04 261.57 320.52 L 260.10 320.61 L 260.81 319.18 L 259.29 319.54 C 259.45 319.00 259.75 317.93 259.91 317.39 L 258.54 317.72 C 258.53 316.87 258.51 315.17 258.50 314.32 C 257.75 314.36 256.27 314.44 255.52 314.48 C 255.56 315.30 255.64 316.93 255.68 317.74 L 254.47 317.27 C 254.52 318.16 254.63 319.95 254.69 320.85 L 253.23 319.14 L 253.68 321.49 L 252.21 321.51 C 252.34 322.01 252.60 323.01 252.73 323.52 L 251.16 323.50 C 251.30 324.00 251.57 324.98 251.71 325.47 L 250.23 325.52 C 250.34 326.01 250.58 327.00 250.70 327.50 L 249.18 327.49 C 249.31 328.02 249.58 329.08 249.71 329.62 L 248.29 329.30 L 248.72 330.78 L 247.37 330.51 C 247.49 331.03 247.71 332.06 247.83 332.58 L 246.42 332.50 C 246.49 333.03 246.62 334.09 246.69 334.62 L 245.35 334.56 C 245.47 335.08 245.71 336.12 245.83 336.64 L 244.52 336.33 C 244.53 337.16 244.54 338.82 244.54 339.65 L 243.19 339.13 L 243.81 340.58 L 242.45 340.46 C 242.51 340.99 242.64 342.06 242.71 342.60 L 241.26 342.55 C 241.40 343.04 241.69 344.01 241.83 344.50 L 240.41 344.52 C 240.49 345.02 240.65 346.02 240.73 346.52 L 239.37 346.55 C 239.46 347.08 239.65 348.13 239.74 348.66 L 238.40 348.51 C 238.47 349.03 238.62 350.07 238.69 350.59 L 237.36 350.55 C 237.46 351.05 237.65 352.04 237.74 352.54 L 236.33 352.48 C 236.43 353.01 236.64 354.07 236.74 354.60 L 235.35 354.47 C 235.43 354.98 235.60 356.00 235.68 356.51 L 234.24 356.55 C 234.38 357.03 234.66 357.99 234.80 358.47 L 233.26 358.50 C 233.37 359.02 233.60 360.05 233.71 360.56 L 232.24 360.52 C 232.35 361.02 232.57 362.03 232.69 362.53 L 231.17 362.53 C 231.33 363.03 231.66 364.03 231.83 364.54 L 230.44 364.32 C 230.43 365.15 230.40 366.81 230.39 367.64 C 229.97 367.58 229.12 367.44 228.69 367.37 C 228.62 368.20 228.49 369.85 228.43 370.67 L 227.07 370.46 C 227.24 370.96 227.58 371.96 227.75 372.46 L 226.36 372.41 C 226.39 372.98 226.47 374.13 226.51 374.70 L 224.80 374.49 C 225.09 375.00 225.66 376.01 225.95 376.52 L 224.36 376.23 L 224.78 377.65 L 223.44 377.51 C 223.53 378.03 223.70 379.07 223.79 379.59 L 222.41 379.53 C 222.48 380.04 222.63 381.08 222.70 381.59 L 221.40 381.56 C 221.48 382.07 221.64 383.09 221.72 383.60 L 220.33 383.52 C 220.44 384.04 220.64 385.08 220.75 385.60 L 219.37 385.54 C 219.45 386.05 219.62 387.07 219.70 387.58 L 218.36 387.47 C 218.44 387.99 218.62 389.03 218.70 389.56 L 217.26 389.49 C 217.38 389.99 217.63 391.01 217.75 391.51 L 216.30 391.55 C 216.41 392.03 216.63 393.00 216.74 393.48 L 215.27 393.56 C 215.39 394.05 215.63 395.03 215.75 395.52 L 214.24 395.58 C 214.36 396.06 214.61 397.02 214.73 397.50 L 213.26 397.56 C 213.38 398.04 213.61 398.99 213.72 399.47 L 212.21 399.51 C 212.35 400.01 212.64 401.00 212.78 401.50 L 211.27 401.51 C 211.38 402.00 211.61 402.99 211.72 403.49 L 210.27 403.50 C 210.39 403.99 210.62 404.98 210.74 405.48 L 209.19 405.54 C 209.33 406.04 209.60 407.04 209.73 407.54 L 208.32 407.42 C 208.37 407.99 208.47 409.14 208.52 409.71 L 207.14 409.39 C 207.29 409.92 207.58 410.98 207.73 411.51 L 206.17 411.45 C 206.31 411.98 206.58 413.04 206.72 413.56 L 205.30 413.35 L 205.74 414.92 L 204.53 414.43 C 204.54 415.24 204.55 416.87 204.56 417.68 L 203.12 417.09 L 203.92 418.57 L 202.58 418.43 C 202.55 419.22 202.47 420.80 202.43 421.59 L 200.96 421.49 C 201.18 422.01 201.61 423.07 201.83 423.60 L 200.28 423.11 L 200.79 424.56 L 199.40 424.48 C 199.48 425.02 199.63 426.11 199.70 426.65 L 198.33 426.48 C 198.42 427.00 198.60 428.04 198.69 428.56 L 197.33 428.51 C 197.42 429.01 197.60 430.02 197.69 430.53 L 196.21 430.54 C 196.35 431.04 196.64 432.04 196.78 432.54 L 195.27 432.52 C 195.37 433.02 195.58 434.03 195.68 434.53 L 194.25 434.49 C 194.36 435.00 194.59 436.02 194.70 436.53 L 193.20 436.45 C 193.33 436.97 193.59 438.02 193.71 438.55 L 192.26 438.47 C 192.38 438.97 192.61 439.98 192.72 440.49 L 191.35 440.39 C 191.42 440.95 191.55 442.05 191.62 442.60 C 191.12 442.57 190.13 442.52 189.63 442.49 L 189.56 443.37 C 161.22 443.24 132.85 443.11 104.52 443.44 C 104.72 441.99 104.80 440.53 104.77 439.08 C 104.61 405.19 104.98 371.30 104.59 337.42 L 105.38 337.62 C 105.47 336.68 105.64 334.80 105.73 333.86 C 106.88 335.79 106.16 338.30 106.72 340.45 C 107.14 340.42 107.99 340.37 108.41 340.34 C 108.48 341.22 108.60 342.98 108.67 343.86 L 110.65 343.04 L 108.66 345.79 L 110.91 344.32 C 110.76 345.14 110.46 346.80 110.31 347.63 L 111.83 347.49 C 111.69 348.00 111.41 349.03 111.27 349.54 L 112.77 349.52 C 112.64 350.00 112.38 350.97 112.25 351.45 L 113.68 351.46 C 113.60 351.99 113.44 353.05 113.35 353.59 L 114.52 353.22 C 114.56 354.05 114.63 355.72 114.67 356.55 C 115.11 356.51 116.01 356.45 116.46 356.41 C 116.57 357.57 116.78 359.89 116.89 361.05 L 117.76 358.59 L 118.97 358.37 C 118.79 357.88 118.43 356.90 118.25 356.41 L 119.71 356.70 L 119.08 355.20 L 120.41 355.89 C 120.44 354.96 120.52 353.11 120.56 352.19 L 121.70 352.62 L 121.38 351.24 L 122.57 351.62 C 122.55 350.81 122.51 349.20 122.49 348.39 L 123.90 348.61 C 123.75 348.08 123.45 347.02 123.30 346.50 L 124.76 346.63 C 124.68 346.08 124.51 344.98 124.42 344.43 L 125.84 344.57 C 125.65 344.04 125.28 342.98 125.10 342.45 L 126.43 342.54 C 126.48 341.72 126.59 340.09 126.65 339.27 L 128.50 339.76 L 127.02 338.09 L 128.51 338.69 C 128.51 337.86 128.51 336.19 128.50 335.36 C 128.96 335.39 129.87 335.45 130.33 335.47 C 130.35 334.68 130.39 333.09 130.41 332.30 L 131.69 332.46 C 131.57 332.01 131.34 331.09 131.22 330.63 C 132.11 330.36 132.99 330.09 133.88 329.81 C 127.18 328.68 120.29 329.40 113.53 329.37 L 113.00 327.89 L 112.47 329.38 C 110.22 329.18 107.96 329.21 105.71 329.33 C 105.45 329.07 104.94 328.56 104.68 328.30 C 104.79 322.65 104.81 317.01 104.66 311.36 C 117.20 311.36 129.74 311.50 142.27 311.30 C 142.32 310.56 142.43 309.07 142.48 308.33 L 143.68 308.50 C 143.56 307.98 143.31 306.94 143.19 306.42 L 144.50 306.68 C 144.52 305.27 144.54 303.86 144.56 302.46 C 145.02 302.50 145.92 302.58 146.37 302.62 C 146.40 301.80 146.47 300.15 146.50 299.33 L 147.62 299.72 C 147.61 298.88 147.59 297.19 147.58 296.35 C 148.00 296.48 148.86 296.75 149.28 296.88 C 149.40 296.19 149.64 294.81 149.76 294.11 C 134.70 294.57 119.60 293.88 104.54 294.46 C 105.00 281.85 104.66 269.21 104.72 256.59 C 115.14 256.64 125.57 256.62 136.00 256.66 C 138.01 256.67 140.07 256.87 142.04 256.31 C 129.61 256.43 117.17 256.28 104.73 256.34 C 104.78 196.23 104.73 136.12 104.75 76.01 C 104.81 73.84 104.74 71.66 104.62 69.49 M 352.19 125.49 C 352.32 126.02 352.57 127.09 352.69 127.62 L 351.21 127.14 L 351.93 128.63 L 350.57 128.32 C 350.53 129.17 350.46 130.88 350.42 131.74 L 349.08 131.16 L 349.73 132.63 L 348.26 132.50 C 348.40 133.00 348.67 134.01 348.81 134.51 L 347.44 134.32 C 347.43 135.15 347.42 136.79 347.41 137.62 C 346.97 137.54 346.08 137.40 345.64 137.32 C 345.59 138.16 345.49 139.83 345.44 140.66 L 344.07 140.36 C 344.24 140.92 344.59 142.05 344.77 142.61 L 343.27 142.04 L 343.75 143.56 L 342.41 143.30 C 342.41 144.12 342.41 145.75 342.41 146.56 C 341.93 146.52 340.96 146.42 340.47 146.38 C 340.54 146.94 340.67 148.07 340.73 148.64 L 339.38 148.59 C 339.46 149.09 339.62 150.09 339.70 150.59 L 338.46 150.52 C 338.50 151.03 338.59 152.06 338.64 152.57 L 337.22 152.52 C 337.37 153.00 337.66 153.98 337.81 154.47 L 336.26 154.55 C 336.37 155.04 336.59 156.03 336.69 156.52 L 335.29 156.46 C 335.39 156.97 335.59 157.98 335.69 158.49 L 334.16 158.47 C 334.31 158.97 334.60 159.98 334.75 160.49 L 333.15 160.52 C 333.29 161.05 333.57 162.10 333.71 162.63 L 332.27 162.12 L 332.82 163.62 L 331.34 163.58 C 331.44 164.07 331.64 165.05 331.74 165.54 L 330.43 165.52 C 330.49 166.02 330.60 167.02 330.66 167.52 L 329.17 167.56 C 329.34 168.04 329.68 169.01 329.85 169.49 L 328.38 169.39 C 328.39 170.19 328.41 171.78 328.42 172.58 C 327.97 172.54 327.07 172.45 326.62 172.41 C 326.58 173.27 326.49 174.98 326.45 175.84 L 325.21 175.13 L 325.73 176.66 L 324.33 176.54 C 324.44 177.04 324.67 178.03 324.78 178.53 L 323.28 178.52 C 323.39 179.03 323.61 180.06 323.72 180.57 L 322.25 180.52 C 322.39 181.03 322.66 182.06 322.80 182.58 L 321.49 182.23 C 321.46 183.06 321.42 184.72 321.40 185.55 C 320.94 185.50 320.01 185.40 319.55 185.35 C 319.58 185.92 319.63 187.06 319.66 187.63 L 318.35 187.48 C 318.44 188.00 318.63 189.03 318.72 189.55 L 317.33 189.49 C 317.42 189.99 317.59 190.98 317.67 191.47 L 316.16 191.57 C 316.33 192.06 316.68 193.05 316.85 193.54 L 315.35 193.18 L 315.79 194.58 L 314.46 194.61 C 314.53 195.10 314.67 196.10 314.74 196.59 L 313.42 196.48 C 313.50 197.01 313.65 198.07 313.73 198.60 L 312.40 198.50 C 312.48 199.00 312.63 200.01 312.71 200.51 L 311.33 200.54 C 311.43 201.05 311.65 202.06 311.76 202.56 L 310.46 202.32 C 310.45 203.15 310.41 204.80 310.39 205.62 C 309.95 205.53 309.09 205.35 308.66 205.26 C 308.60 206.10 308.50 207.77 308.45 208.60 L 307.08 208.31 L 307.74 209.77 L 306.36 209.49 C 306.44 210.00 306.62 211.01 306.71 211.52 L 305.16 211.59 C 305.34 212.08 305.68 213.08 305.86 213.57 L 304.32 213.17 L 304.87 214.57 L 303.58 214.52 C 303.56 215.28 303.50 216.81 303.47 217.57 L 302.18 217.40 C 302.28 217.97 302.47 219.09 302.57 219.65 L 300.77 219.44 L 301.83 220.78 L 300.23 220.50 C 300.38 221.00 300.69 222.01 300.84 222.52 L 299.47 222.33 C 299.45 223.16 299.41 224.82 299.39 225.65 C 298.96 225.57 298.10 225.42 297.67 225.34 C 297.60 226.21 297.48 227.96 297.42 228.83 L 296.14 228.09 L 296.81 229.61 L 295.39 229.50 C 295.48 230.01 295.67 231.04 295.76 231.56 L 294.33 231.47 C 294.42 232.00 294.61 233.05 294.70 233.57 L 293.33 233.49 C 293.42 233.99 293.59 235.00 293.68 235.50 L 292.21 235.54 C 292.35 236.02 292.62 237.00 292.76 237.48 L 291.15 237.52 C 291.29 238.06 291.59 239.12 291.74 239.66 L 290.32 239.08 L 290.78 240.60 L 289.36 240.48 C 289.46 241.02 289.66 242.10 289.76 242.64 L 288.41 242.46 C 288.48 242.98 288.61 244.02 288.67 244.54 L 287.29 244.54 C 287.41 245.03 287.65 246.00 287.77 246.48 L 286.20 246.57 C 286.35 247.08 286.66 248.09 286.82 248.59 L 285.45 248.29 C 285.43 249.14 285.40 250.84 285.38 251.69 C 284.95 251.58 284.08 251.36 283.65 251.25 C 283.59 252.15 283.48 253.94 283.42 254.84 L 282.36 254.24 C 282.55 255.52 282.30 256.72 281.61 257.82 L 283.38 257.18 C 283.41 258.04 283.49 259.75 283.52 260.61 L 284.79 260.38 C 284.68 260.92 284.46 262.01 284.35 262.55 L 285.78 262.22 L 285.09 263.68 L 286.62 263.37 C 286.53 263.93 286.35 265.04 286.27 265.60 L 287.74 265.52 C 287.61 266.02 287.35 267.02 287.22 267.52 L 288.67 267.47 C 288.57 267.99 288.37 269.03 288.27 269.54 L 289.71 269.40 C 289.61 269.93 289.41 270.98 289.31 271.51 L 290.77 271.52 C 290.66 272.00 290.42 272.97 290.30 273.46 L 291.50 273.34 C 291.31 274.90 293.05 275.78 292.63 277.44 L 293.87 277.41 L 293.36 278.85 L 294.89 278.41 C 294.70 278.92 294.32 279.93 294.12 280.43 L 295.72 280.51 C 295.62 281.00 295.42 282.00 295.32 282.50 L 296.68 282.44 C 296.61 282.95 296.49 283.96 296.42 284.47 L 297.72 284.35 C 297.65 284.88 297.51 285.95 297.44 286.49 L 298.90 286.40 L 298.26 287.83 L 299.79 287.43 C 299.62 287.93 299.30 288.94 299.13 289.44 L 300.78 289.57 C 300.62 290.07 300.30 291.06 300.13 291.55 L 301.81 291.13 L 300.48 292.76 L 302.37 292.25 C 302.41 293.08 302.49 294.76 302.53 295.60 L 303.79 295.41 C 303.69 295.92 303.49 296.93 303.39 297.44 L 304.77 297.37 L 304.23 298.82 L 305.69 298.38 C 305.57 298.91 305.34 299.96 305.22 300.48 L 306.71 300.54 C 306.61 301.02 306.42 302.00 306.33 302.48 L 307.71 302.46 C 307.62 302.96 307.43 303.98 307.34 304.49 L 308.72 304.39 C 308.65 304.93 308.50 306.00 308.43 306.54 L 309.88 306.47 L 309.26 307.92 L 310.83 307.41 C 310.66 307.92 310.31 308.95 310.13 309.46 L 311.69 309.52 C 311.60 310.01 311.41 311.01 311.32 311.51 L 312.73 311.51 C 312.63 311.99 312.41 312.95 312.31 313.43 L 313.79 313.51 C 313.66 314.01 313.42 315.01 313.29 315.50 L 314.68 315.34 L 314.29 316.79 L 315.76 316.45 C 315.59 316.96 315.24 317.98 315.07 318.48 L 316.68 318.53 C 316.57 319.04 316.34 320.06 316.22 320.57 L 317.58 320.42 C 317.52 320.95 317.42 322.03 317.36 322.56 L 318.81 322.50 C 318.66 322.98 318.36 323.96 318.21 324.45 L 319.67 324.41 C 319.62 324.94 319.51 326.00 319.46 326.52 L 320.89 326.45 L 320.09 327.91 L 321.45 327.24 C 321.51 328.10 321.62 329.83 321.67 330.69 C 322.10 330.60 322.95 330.42 323.37 330.32 C 323.41 331.18 323.48 332.88 323.51 333.74 L 324.90 333.43 C 324.73 333.94 324.39 334.94 324.21 335.44 L 325.72 335.30 L 325.02 336.82 L 326.36 336.15 C 326.44 337.04 326.60 338.83 326.69 339.73 C 327.11 339.63 327.94 339.42 328.36 339.32 C 328.39 340.19 328.45 341.94 328.48 342.81 L 329.87 342.41 C 329.71 342.92 329.38 343.94 329.21 344.45 L 330.72 344.52 C 330.63 345.00 330.46 345.97 330.37 346.46 L 331.71 346.45 C 331.63 346.96 331.47 347.99 331.39 348.50 L 332.70 348.34 C 332.65 348.93 332.57 350.09 332.53 350.68 L 334.66 350.39 L 332.94 352.21 L 334.99 351.46 C 334.75 351.95 334.27 352.93 334.03 353.42 L 335.63 353.46 C 335.56 353.99 335.41 355.04 335.34 355.56 L 336.73 355.49 C 336.61 355.98 336.37 356.96 336.25 357.45 L 337.78 357.51 C 337.66 358.00 337.40 358.97 337.27 359.46 L 338.71 359.47 C 338.63 359.97 338.47 360.98 338.39 361.48 L 339.68 361.20 L 339.13 362.65 L 340.62 362.44 C 340.50 362.97 340.26 364.05 340.14 364.58 L 341.56 364.37 C 341.49 364.92 341.36 366.01 341.30 366.56 L 342.76 366.50 C 342.62 367.00 342.34 368.00 342.21 368.50 L 343.69 368.46 C 343.62 368.95 343.48 369.94 343.40 370.43 L 344.80 370.47 L 344.24 371.85 L 345.77 371.41 C 345.61 371.93 345.29 372.98 345.13 373.51 L 346.53 373.48 C 346.47 374.02 346.34 375.11 346.28 375.65 C 346.87 375.68 348.05 375.74 348.65 375.77 C 348.16 356.26 348.43 336.70 348.50 317.18 L 347.52 317.81 C 347.86 313.94 347.13 310.07 347.62 306.22 L 346.53 306.79 C 346.81 276.96 346.11 247.11 346.63 217.29 C 340.88 217.26 335.12 217.17 329.36 217.34 C 329.40 216.35 329.45 215.36 329.52 214.38 L 330.90 214.52 C 330.72 214.00 330.37 212.97 330.19 212.45 L 331.63 212.70 C 331.62 211.88 331.61 210.24 331.60 209.42 C 332.04 209.49 332.93 209.63 333.37 209.70 C 332.62 206.96 336.51 206.00 335.40 203.33 L 336.76 203.88 L 336.16 202.44 L 337.57 202.48 C 337.49 201.97 337.34 200.95 337.26 200.44 L 338.67 200.47 C 338.58 199.95 338.39 198.91 338.29 198.38 L 339.67 198.47 C 339.58 197.97 339.41 196.96 339.32 196.46 L 340.69 196.56 C 340.61 196.03 340.43 194.98 340.34 194.45 L 342.28 194.43 C 341.91 193.89 341.18 192.83 340.81 192.29 L 342.56 193.41 L 342.32 191.47 L 343.77 191.52 C 343.64 191.01 343.39 190.00 343.26 189.50 L 344.85 189.43 C 344.71 188.92 344.44 187.88 344.31 187.36 L 345.70 187.78 L 345.28 186.30 L 346.71 186.49 C 346.60 185.97 346.39 184.94 346.28 184.43 L 347.66 184.44 C 347.58 183.96 347.42 182.98 347.33 182.50 L 348.76 182.55 C 348.61 182.03 348.31 180.98 348.16 180.45 L 349.61 180.47 C 349.53 179.96 349.37 178.94 349.30 178.43 L 350.63 178.42 C 350.51 177.92 350.28 176.91 350.17 176.40 L 351.45 176.68 C 351.46 175.84 351.49 174.16 351.51 173.31 L 352.85 173.86 L 352.17 172.40 L 353.54 172.52 C 353.50 171.98 353.44 170.90 353.40 170.36 L 354.82 170.50 C 354.66 169.99 354.34 168.95 354.18 168.43 L 355.52 168.69 L 355.43 167.40 L 356.60 167.67 C 356.58 166.87 356.55 165.26 356.54 164.46 C 357.02 164.48 357.99 164.51 358.48 164.52 C 358.43 164.01 358.34 162.98 358.30 162.47 L 359.73 162.46 C 359.61 161.95 359.36 160.92 359.23 160.41 L 360.66 160.77 L 360.28 159.38 L 361.66 159.51 C 361.53 158.99 361.27 157.95 361.13 157.43 L 362.54 157.47 C 362.56 156.72 362.58 155.22 362.60 154.47 C 363.08 154.51 364.05 154.58 364.53 154.61 C 364.47 154.05 364.36 152.93 364.31 152.37 L 365.54 152.69 C 365.55 151.88 365.57 150.27 365.58 149.46 C 366.06 149.47 367.04 149.48 367.53 149.49 C 367.50 148.94 367.43 147.83 367.40 147.28 L 368.71 147.54 C 368.58 147.02 368.33 145.99 368.21 145.47 L 370.02 145.99 L 368.23 144.29 L 370.40 144.71 C 370.44 143.84 370.51 142.10 370.55 141.23 L 371.82 141.81 L 371.12 140.38 L 372.61 140.51 C 372.52 139.98 372.33 138.91 372.24 138.38 L 373.52 138.67 C 373.53 137.86 373.57 136.25 373.59 135.44 C 374.06 135.51 374.99 135.63 375.46 135.70 C 375.49 134.85 375.57 133.16 375.61 132.31 L 377.37 132.63 L 376.23 131.15 L 377.91 131.53 L 377.18 129.69 C 377.60 129.68 378.43 129.64 378.84 129.63 L 378.23 128.38 L 379.53 128.37 C 379.50 127.93 379.43 127.05 379.40 126.61 L 381.67 125.92 C 378.92 124.81 375.91 125.36 373.03 125.25 C 366.08 125.38 359.12 124.97 352.19 125.49 M 167.60 251.05 C 167.65 253.24 167.55 255.42 167.36 257.60 L 168.47 257.19 C 168.14 269.75 168.56 282.32 168.25 294.88 C 174.74 294.56 181.23 294.90 187.72 294.68 C 187.56 295.73 187.46 296.78 187.43 297.85 L 186.27 297.23 L 186.56 298.74 L 184.90 298.49 C 185.18 299.00 185.74 300.02 186.01 300.53 L 184.43 300.17 L 184.64 301.58 L 183.25 301.48 C 183.41 302.00 183.73 303.04 183.89 303.56 L 182.42 303.41 C 182.42 304.18 182.42 305.74 182.42 306.52 C 181.93 306.48 180.95 306.41 180.45 306.37 C 180.49 306.95 180.56 308.11 180.60 308.69 L 179.28 308.57 C 179.38 309.07 179.59 310.05 179.69 310.55 L 178.22 310.33 L 178.91 311.70 L 177.53 311.48 C 177.50 312.25 177.44 313.80 177.41 314.58 C 176.97 314.53 176.08 314.44 175.64 314.39 C 175.60 315.21 175.54 316.84 175.50 317.66 L 174.16 317.15 L 174.79 318.57 L 173.40 318.51 C 173.47 319.01 173.60 320.00 173.67 320.50 L 172.11 320.55 C 172.31 321.05 172.71 322.06 172.91 322.56 L 171.39 322.15 L 171.68 323.52 L 170.27 323.52 L 170.82 325.34 C 170.38 325.40 169.51 325.52 169.08 325.59 C 169.27 326.08 169.65 327.06 169.84 327.55 L 168.40 327.32 L 168.64 328.70 L 167.28 328.50 C 167.42 329.01 167.69 330.02 167.82 330.53 L 166.42 330.41 C 166.42 331.21 166.41 332.81 166.40 333.62 C 165.96 333.56 165.08 333.44 164.64 333.38 C 164.57 334.82 164.49 336.26 164.40 337.71 L 163.09 337.12 L 163.74 338.58 L 162.37 338.50 C 162.42 339.02 162.52 340.08 162.57 340.61 L 160.73 340.57 C 161.06 341.04 161.71 341.99 162.04 342.47 L 160.54 342.23 L 160.45 343.63 L 158.83 343.53 C 159.12 344.02 159.71 345.01 160.00 345.51 L 158.36 345.21 L 158.74 346.58 L 157.36 346.53 C 157.45 347.05 157.63 348.09 157.73 348.61 L 156.32 348.10 L 156.81 349.38 L 155.70 349.77 C 155.64 350.23 155.54 351.14 155.49 351.59 L 154.22 351.47 C 154.38 351.98 154.69 353.01 154.85 353.53 L 153.39 353.52 C 153.44 354.04 153.53 355.07 153.58 355.58 L 152.21 355.41 L 152.68 356.76 L 151.25 356.50 C 151.39 357.01 151.67 358.02 151.81 358.52 L 150.44 358.30 C 150.44 359.12 150.42 360.76 150.41 361.57 C 149.95 361.52 149.01 361.42 148.55 361.37 C 148.51 362.17 148.44 363.76 148.40 364.56 C 147.93 364.56 146.98 364.56 146.51 364.56 C 146.58 365.08 146.71 366.11 146.78 366.63 L 145.48 366.45 C 145.47 367.27 145.45 368.92 145.44 369.74 L 144.12 369.24 L 144.73 370.70 L 143.27 370.47 C 143.38 370.98 143.61 371.99 143.72 372.50 L 142.12 372.57 C 142.29 373.07 142.63 374.07 142.80 374.57 L 141.39 374.26 L 141.76 375.66 L 140.47 375.32 C 140.46 376.14 140.44 377.76 140.43 378.57 C 139.97 378.56 139.05 378.53 138.59 378.51 C 138.61 379.05 138.66 380.12 138.68 380.66 L 137.39 380.63 C 137.47 381.13 137.62 382.13 137.70 382.63 L 136.36 382.54 C 136.42 383.01 136.56 383.94 136.62 384.41 L 134.14 385.07 C 142.39 386.59 150.96 385.31 159.34 385.79 C 160.15 386.00 161.78 386.43 162.59 386.65 C 162.52 386.14 162.38 385.12 162.31 384.61 C 164.78 385.06 165.08 382.11 164.38 380.51 C 164.66 379.98 165.22 378.93 165.50 378.40 L 167.41 378.59 C 167.07 378.06 166.40 377.01 166.07 376.48 L 167.62 376.81 L 167.26 375.31 L 168.49 375.73 C 168.51 374.89 168.56 373.20 168.59 372.35 C 169.01 372.43 169.85 372.57 170.27 372.64 C 170.34 371.82 170.49 370.17 170.56 369.34 L 172.32 369.56 C 172.00 369.05 171.37 368.03 171.05 367.51 L 172.61 367.76 L 172.32 366.38 L 173.71 366.54 C 173.57 366.01 173.31 364.95 173.18 364.43 L 174.53 364.46 C 174.50 363.68 174.44 362.13 174.41 361.35 L 175.68 361.83 L 175.44 360.38 L 177.00 360.50 C 176.76 360.02 176.30 359.06 176.07 358.58 L 177.65 358.54 C 177.59 358.01 177.47 356.93 177.41 356.40 L 178.68 356.60 C 178.63 356.05 178.52 354.95 178.47 354.40 L 180.39 354.61 C 180.04 354.08 179.35 353.01 179.00 352.48 L 180.65 352.86 L 180.30 351.42 L 181.78 351.56 C 181.63 351.04 181.32 350.01 181.17 349.49 L 182.72 349.49 C 182.62 348.98 182.41 347.96 182.31 347.45 L 183.64 347.70 L 183.12 346.40 L 184.58 346.42 C 184.53 345.65 184.44 344.11 184.40 343.34 L 185.67 343.96 L 185.37 342.43 L 186.86 342.53 C 186.66 342.03 186.27 341.03 186.07 340.53 L 187.57 340.68 C 187.58 339.82 187.59 338.09 187.59 337.22 L 188.93 337.81 L 188.24 336.32 L 189.66 336.52 C 189.57 336.00 189.39 334.96 189.30 334.44 L 190.72 334.49 C 190.62 333.98 190.43 332.97 190.34 332.47 L 191.80 332.44 C 191.66 331.97 191.38 331.02 191.24 330.54 L 192.80 330.49 C 192.67 329.96 192.40 328.89 192.26 328.36 L 193.62 328.72 L 193.30 327.24 L 194.65 327.48 C 194.53 326.96 194.28 325.94 194.16 325.42 L 195.58 325.48 C 195.50 324.97 195.36 323.95 195.29 323.44 L 196.65 323.47 C 196.54 322.95 196.33 321.92 196.23 321.41 L 197.53 321.69 C 197.55 320.88 197.58 319.25 197.60 318.44 C 198.06 318.49 198.97 318.60 199.43 318.66 C 199.40 318.09 199.33 316.94 199.30 316.37 L 200.62 316.47 C 200.54 315.95 200.38 314.90 200.31 314.38 L 201.62 314.46 C 201.53 313.96 201.36 312.96 201.27 312.46 L 202.52 312.61 C 202.54 311.81 202.58 310.23 202.59 309.43 C 203.02 309.49 203.88 309.59 204.31 309.64 C 204.37 308.83 204.50 307.22 204.56 306.41 L 205.92 306.56 C 205.75 306.02 205.40 304.94 205.23 304.40 L 206.78 304.87 L 206.18 303.44 L 207.67 303.48 C 207.54 302.95 207.28 301.91 207.16 301.39 L 208.48 301.65 C 208.52 300.82 208.60 299.16 208.64 298.33 C 209.06 298.43 209.90 298.63 210.32 298.73 C 210.39 297.87 210.53 296.14 210.61 295.28 L 212.03 295.55 C 211.82 295.02 211.39 293.97 211.18 293.44 L 212.74 293.86 L 212.14 292.43 L 213.59 292.51 C 213.52 291.98 213.39 290.93 213.33 290.40 L 214.69 290.43 C 214.59 289.94 214.40 288.97 214.30 288.48 L 215.75 288.45 C 215.63 287.96 215.39 286.97 215.27 286.48 L 216.75 286.51 C 216.64 285.98 216.42 284.91 216.31 284.37 L 217.67 284.65 L 217.32 283.17 L 218.67 283.47 C 218.54 282.96 218.28 281.96 218.15 281.45 L 219.59 281.43 C 219.52 280.92 219.38 279.91 219.31 279.40 L 220.62 279.47 C 220.54 278.96 220.39 277.93 220.31 277.42 L 221.76 277.46 C 221.64 276.94 221.38 275.90 221.25 275.38 L 222.62 275.70 L 222.29 274.25 L 223.61 274.44 C 223.51 273.94 223.29 272.93 223.18 272.43 L 224.60 272.48 C 224.53 271.96 224.39 270.90 224.32 270.37 L 225.63 270.47 C 225.54 269.97 225.35 268.95 225.26 268.45 L 226.53 268.60 C 226.54 267.81 226.56 266.24 226.57 265.46 C 227.01 265.49 227.89 265.54 228.33 265.56 C 228.38 264.77 228.50 263.17 228.56 262.38 L 229.91 262.56 C 229.76 262.04 229.46 260.99 229.31 260.47 L 230.87 260.52 C 230.73 260.01 230.45 258.97 230.30 258.46 L 231.76 258.65 C 231.68 258.14 231.51 257.14 231.42 256.64 L 235.88 256.26 L 231.21 255.38 C 231.37 254.92 231.70 254.01 231.87 253.55 L 230.35 253.52 C 230.44 253.01 230.63 251.97 230.72 251.45 L 229.30 251.59 C 229.41 251.07 229.62 250.02 229.73 249.49 L 228.25 249.48 C 228.36 249.00 228.58 248.04 228.70 247.56 L 227.25 247.55 L 227.79 246.15 L 226.27 246.58 C 226.42 246.04 226.73 244.96 226.88 244.42 L 225.46 244.61 C 225.51 244.05 225.61 242.93 225.66 242.37 L 224.05 242.42 C 224.36 241.94 224.97 241.00 225.27 240.52 L 223.42 240.63 C 223.47 240.09 223.58 239.01 223.63 238.47 L 222.32 238.51 C 222.39 238.01 222.53 237.01 222.60 236.52 L 221.32 236.62 C 221.37 236.06 221.46 234.96 221.51 234.40 C 221.03 234.45 220.07 234.56 219.59 234.61 C 219.59 233.78 219.59 232.12 219.59 231.29 L 218.15 231.51 C 218.31 231.02 218.65 230.04 218.82 229.55 L 217.31 229.52 C 217.39 229.02 217.54 228.02 217.62 227.52 L 216.31 227.60 C 216.39 227.08 216.54 226.03 216.62 225.51 L 215.22 225.58 C 215.32 225.07 215.51 224.05 215.61 223.54 L 214.23 223.68 L 214.82 222.26 L 213.36 222.61 C 213.46 222.08 213.67 221.01 213.77 220.48 L 212.30 220.49 C 212.40 220.00 212.60 219.01 212.70 218.51 L 211.25 218.48 C 211.38 217.99 211.65 217.01 211.78 216.53 L 210.27 216.53 C 210.38 216.02 210.60 215.00 210.71 214.50 L 209.36 214.60 C 209.40 214.09 209.47 213.05 209.51 212.54 L 208.16 212.56 L 208.72 211.14 L 207.17 211.55 C 207.33 211.04 207.67 210.04 207.84 209.54 L 206.32 209.52 C 206.42 209.01 206.61 207.99 206.71 207.48 L 205.22 207.50 C 205.35 207.00 205.63 206.01 205.77 205.51 L 204.28 205.52 C 204.37 205.02 204.56 204.03 204.65 203.54 L 203.33 203.58 C 203.38 203.08 203.49 202.07 203.54 201.56 L 202.22 201.60 C 202.30 201.08 202.48 200.05 202.57 199.53 L 201.22 199.79 L 201.71 198.29 L 200.34 198.63 C 200.43 198.10 200.63 197.02 200.73 196.48 L 199.21 196.47 C 199.34 195.98 199.61 195.02 199.75 194.53 L 198.40 194.58 C 198.42 194.08 198.45 193.09 198.47 192.59 L 197.25 192.58 L 197.78 191.25 L 196.38 191.57 C 196.46 191.04 196.63 189.99 196.72 189.46 L 195.31 189.53 C 195.42 189.01 195.64 187.97 195.74 187.46 L 194.33 187.63 C 194.40 187.08 194.56 185.99 194.64 185.45 L 193.24 185.61 L 193.79 184.16 L 192.29 184.64 C 192.46 184.09 192.78 183.00 192.94 182.46 L 191.54 182.56 C 191.51 181.78 191.46 180.24 191.43 179.47 L 190.11 179.57 L 190.72 178.15 L 189.13 178.54 C 189.33 178.05 189.72 177.07 189.92 176.58 L 188.35 176.49 C 188.43 175.98 188.59 174.98 188.67 174.48 L 187.28 174.50 C 187.39 174.01 187.62 173.02 187.73 172.53 L 186.19 172.48 C 186.34 171.97 186.62 170.97 186.76 170.46 L 185.30 170.71 L 185.87 169.34 L 184.30 169.54 C 184.45 169.02 184.74 168.00 184.89 167.48 L 183.34 167.55 C 183.43 167.03 183.61 165.99 183.70 165.47 L 182.35 165.51 C 182.41 164.99 182.52 163.96 182.58 163.45 L 181.18 163.60 C 181.32 163.06 181.58 161.99 181.72 161.46 L 180.32 161.77 L 180.71 160.23 L 179.31 160.66 C 179.43 160.12 179.66 159.03 179.78 158.49 L 178.22 158.47 C 178.36 157.99 178.65 157.02 178.79 156.54 L 177.29 156.46 C 177.39 155.98 177.60 155.03 177.71 154.55 L 176.25 154.50 C 176.37 154.00 176.60 153.01 176.72 152.51 L 175.30 152.58 C 175.37 152.06 175.49 151.02 175.55 150.49 L 174.16 150.56 L 174.83 149.14 L 173.51 149.72 C 173.48 148.87 173.41 147.16 173.38 146.31 C 172.93 146.39 172.04 146.56 171.60 146.64 C 171.59 145.81 171.57 144.14 171.56 143.31 L 170.27 143.64 C 170.36 143.11 170.55 142.07 170.64 141.54 L 169.25 141.45 C 169.38 140.98 169.64 140.04 169.77 139.57 L 168.38 139.51 L 168.56 137.40 L 167.52 137.49 C 167.57 175.35 167.56 213.20 167.60 251.05 Z" />
<path fill="#ffffff" opacity="1.00" d=" M 0.00 472.18 L 1.13 471.10 C 1.42 474.84 2.62 478.41 4.09 481.84 C 9.01 493.97 19.02 504.00 31.16 508.91 C 33.37 510.00 35.98 510.26 37.86 512.00 L 0.00 512.00 L 0.00 472.18 Z" />
<path fill="#ffffff" opacity="1.00" d=" M 508.92 481.83 C 510.05 479.64 510.25 477.00 512.00 475.14 L 512.00 512.00 L 475.18 512.00 C 477.92 509.75 481.62 509.48 484.65 507.74 C 495.45 502.36 504.44 493.09 508.92 481.83 Z" />
</g>
</svg>
