<?xml version="1.0" encoding="UTF-8" ?>
<!DOCTYPE svg PUBLIC "-//W3C//DTD SVG 1.1//EN" "http://www.w3.org/Graphics/SVG/1.1/DTD/svg11.dtd">
<svg width="1082pt" height="392pt" viewBox="0 0 1082 392" version="1.1" xmlns="http://www.w3.org/2000/svg">
<g id="#ecececff">
<path fill="#ececec" opacity="1.00" d=" M 67.73 5.70 C 74.73 2.66 82.36 1.11 89.98 1.24 C 161.33 1.25 232.68 1.23 304.03 1.25 C 326.46 1.25 347.88 15.49 357.37 35.67 C 362.11 45.00 364.03 55.59 363.69 66.00 C 363.65 136.02 363.68 206.03 363.67 276.04 C 363.06 299.85 347.23 322.33 325.09 331.04 C 318.07 333.85 310.54 335.26 302.99 335.31 C 244.33 335.31 185.66 335.31 127.00 335.31 C 122.42 335.28 117.83 335.51 113.26 335.03 C 113.40 326.08 113.42 317.13 113.26 308.18 C 173.17 308.10 233.09 308.17 293.00 308.16 C 300.22 308.32 307.66 308.13 314.48 305.48 C 324.02 301.74 331.86 293.60 334.80 283.72 C 336.81 278.37 336.36 272.59 336.37 267.00 C 336.37 201.00 336.37 135.00 336.37 69.00 C 336.35 64.49 336.66 59.91 335.56 55.50 C 334.23 49.13 330.81 43.32 326.37 38.63 C 319.89 32.42 311.03 28.59 302.01 28.62 C 234.00 28.65 166.00 28.63 97.99 28.63 C 92.89 28.67 87.68 28.26 82.70 29.66 C 77.21 31.21 72.00 33.92 67.70 37.70 C 62.40 42.62 58.79 49.26 57.26 56.31 C 56.39 60.14 56.64 64.10 56.62 68.00 C 56.65 107.89 56.60 147.78 56.65 187.67 C 46.73 196.29 36.99 205.32 29.18 215.94 C 29.40 210.63 29.32 205.31 29.33 200.00 C 29.33 156.67 29.32 113.33 29.33 70.00 C 29.35 64.66 29.06 59.28 29.95 53.98 C 32.86 32.76 47.71 13.49 67.73 5.70 Z" />
<path fill="#ececec" opacity="1.00" d=" M 850.99 42.00 C 855.88 40.73 860.77 42.61 865.71 42.34 C 866.04 48.14 864.83 53.86 864.87 59.64 C 860.72 58.21 855.51 57.82 852.18 61.20 C 848.19 65.49 847.94 71.95 848.59 77.47 C 852.96 77.35 857.35 77.39 861.73 77.28 C 861.63 82.76 861.64 88.25 861.73 93.73 C 857.41 93.57 853.09 93.56 848.77 93.77 C 848.49 112.75 848.60 131.74 848.72 150.72 C 841.91 150.58 835.09 150.58 828.28 150.72 C 828.39 131.73 828.52 112.73 828.22 93.75 C 825.52 93.67 822.82 93.61 820.14 93.69 C 819.71 88.24 819.70 82.76 820.14 77.32 C 822.80 77.39 825.48 77.33 828.16 77.22 C 828.75 69.84 829.04 62.15 832.42 55.40 C 835.54 47.94 843.06 42.89 850.99 42.00 Z" />
<path fill="#ececec" opacity="1.00" d=" M 651.28 42.28 C 658.09 42.42 664.91 42.42 671.72 42.28 C 671.49 61.85 671.72 81.43 671.60 101.00 C 671.56 103.46 671.67 105.92 671.98 108.36 C 672.89 107.46 673.85 106.56 674.43 105.39 C 679.38 95.65 685.75 86.72 691.28 77.30 C 699.19 77.43 707.11 77.37 715.03 77.32 C 707.77 87.61 698.99 96.76 691.60 106.98 C 700.33 121.80 710.08 136.00 718.87 150.78 C 710.66 150.50 702.44 150.60 694.23 150.72 C 690.55 143.76 686.67 136.92 683.08 129.92 C 681.26 126.64 679.66 123.19 677.15 120.38 C 675.01 123.32 671.54 125.97 671.62 129.94 C 671.60 136.87 671.58 143.79 671.71 150.72 C 664.90 150.58 658.09 150.58 651.28 150.72 C 651.43 114.57 651.44 78.43 651.28 42.28 Z" />
<path fill="#ececec" opacity="1.00" d=" M 944.28 42.28 C 951.09 42.42 957.90 42.42 964.71 42.28 C 964.53 52.19 964.66 62.10 964.63 72.00 C 964.69 77.04 964.37 82.09 964.92 87.12 C 967.90 84.03 970.77 80.62 974.80 78.85 C 978.94 77.12 983.59 75.86 988.09 76.90 C 996.99 77.95 1003.70 85.86 1005.68 94.24 C 1007.18 101.04 1007.89 108.04 1007.64 115.00 C 1007.67 126.91 1007.53 138.81 1007.72 150.71 C 1000.90 150.59 994.09 150.58 987.28 150.72 C 987.49 136.46 987.30 122.19 987.39 107.93 C 987.43 102.34 984.63 95.45 978.47 94.45 C 971.23 92.77 964.00 99.75 964.60 106.94 C 964.71 121.53 964.51 136.12 964.72 150.72 C 957.90 150.58 951.09 150.58 944.28 150.72 C 944.43 114.57 944.43 78.42 944.28 42.28 Z" />
<path fill="#ececec" opacity="1.00" d=" M 433.00 48.32 C 437.02 48.38 440.97 47.42 444.98 47.33 C 450.88 47.05 456.70 48.23 462.57 48.63 C 472.17 50.23 482.30 56.32 484.45 66.47 C 487.30 74.93 484.42 84.88 477.69 90.68 C 475.44 92.73 472.63 93.98 469.96 95.35 C 473.70 97.90 478.22 99.25 481.44 102.56 C 491.18 112.35 491.07 129.71 481.72 139.72 C 474.94 147.69 463.98 150.22 453.97 150.77 C 446.99 151.74 439.88 152.15 432.90 151.08 C 428.72 150.44 424.43 150.95 420.33 149.84 C 420.39 116.36 420.42 82.88 420.31 49.41 C 424.56 49.21 428.73 48.19 433.00 48.32 M 440.83 63.82 C 440.44 72.28 440.59 80.77 440.76 89.24 C 444.52 89.34 448.29 89.58 452.05 89.31 C 457.62 88.83 463.36 85.48 465.10 79.91 C 465.60 77.35 465.61 74.65 465.10 72.08 C 463.68 67.31 458.84 64.20 454.06 63.69 C 449.65 63.44 445.23 63.60 440.83 63.82 M 441.22 105.20 L 440.73 106.00 C 440.54 115.73 440.51 125.48 440.80 135.21 C 445.47 135.33 450.22 135.81 454.85 134.97 C 460.24 133.96 465.29 130.20 467.03 124.90 C 468.07 119.87 467.59 114.03 463.80 110.21 C 460.65 107.40 456.50 105.85 452.33 105.45 C 448.66 105.09 444.86 104.15 441.22 105.20 Z" />
<path fill="#ececec" opacity="1.00" d=" M 78.32 50.19 C 83.43 51.31 88.70 51.29 93.82 52.33 C 130.58 59.33 164.02 82.98 182.15 115.80 C 190.48 130.76 195.46 147.68 195.91 164.83 L 197.01 164.79 C 197.31 159.97 198.08 155.22 198.65 150.44 C 201.32 133.95 207.87 118.14 217.56 104.55 C 239.81 73.37 276.33 52.41 314.69 50.18 C 314.60 75.69 314.55 101.21 314.72 126.72 C 305.67 126.73 296.56 126.11 287.57 127.41 C 264.70 128.24 241.20 132.38 221.33 144.34 C 213.18 149.62 205.49 155.80 199.47 163.49 C 198.45 164.69 197.55 166.07 196.13 166.84 C 194.44 165.19 193.05 163.27 191.56 161.44 C 186.69 155.29 180.40 150.49 174.09 145.91 C 156.51 134.31 135.34 129.72 114.60 128.25 C 108.99 127.09 103.24 128.07 97.59 127.32 C 91.20 126.36 84.72 126.71 78.29 126.71 C 78.45 101.20 78.39 75.69 78.32 50.19 Z" />
<path fill="#ececec" opacity="1.00" d=" M 899.21 61.22 C 905.68 59.38 912.25 57.93 918.75 56.19 C 918.57 63.21 918.52 70.23 918.76 77.24 C 923.74 77.45 928.73 77.41 933.72 77.28 C 933.57 82.76 933.58 88.24 933.72 93.72 C 928.74 93.58 923.75 93.54 918.78 93.77 C 918.43 103.53 918.73 113.30 918.60 123.07 C 918.31 127.09 920.15 131.57 924.06 133.19 C 926.95 133.59 929.88 133.35 932.79 133.28 C 932.70 138.80 932.77 144.33 932.80 149.86 C 926.71 151.00 920.31 152.71 914.22 150.72 C 908.92 149.64 904.25 146.04 901.86 141.21 C 900.17 137.37 899.23 133.20 899.26 129.01 C 899.15 120.34 899.20 111.67 899.21 103.00 C 899.17 100.07 899.49 97.09 898.79 94.21 C 896.17 92.95 893.01 93.85 890.19 93.72 C 890.20 88.24 890.19 82.75 890.18 77.27 C 893.01 77.12 896.21 78.11 898.80 76.78 C 899.73 71.66 898.94 66.40 899.21 61.22 Z" />
<path fill="#ececec" opacity="1.00" d=" M 519.98 77.09 C 526.51 75.60 533.27 76.58 539.61 78.45 C 546.57 80.73 552.17 86.56 554.41 93.51 C 555.86 98.52 556.73 103.74 556.66 108.96 C 556.58 120.67 556.68 132.37 556.60 144.07 C 556.53 146.38 557.02 148.66 557.63 150.88 C 551.57 150.41 545.48 150.68 539.41 150.67 C 539.34 147.89 538.79 145.15 537.86 142.53 C 535.95 143.68 534.29 145.16 532.63 146.62 C 529.43 149.42 525.16 150.42 521.08 151.12 C 517.09 151.90 512.99 150.96 509.21 149.70 C 499.60 145.64 494.56 133.95 497.10 124.03 C 497.99 116.84 502.78 110.52 509.13 107.17 C 517.40 102.42 527.08 102.20 536.30 101.05 C 536.51 98.31 535.64 95.29 533.14 93.84 C 529.31 91.03 524.38 91.54 519.92 91.61 C 514.65 91.71 509.74 93.84 504.98 95.87 C 503.82 91.55 502.85 87.18 501.27 82.99 C 506.97 79.60 513.40 77.73 519.98 77.09 M 530.35 115.16 C 526.71 115.82 522.81 116.42 519.91 118.91 C 516.68 121.59 515.32 126.26 516.63 130.25 C 518.07 135.07 524.09 137.74 528.68 135.76 C 533.08 133.94 536.67 129.81 537.14 124.96 C 537.41 121.72 537.80 118.30 536.81 115.15 C 534.75 114.21 532.46 114.89 530.35 115.16 Z" />
<path fill="#ececec" opacity="1.00" d=" M 601.11 79.16 C 606.25 76.82 612.20 75.51 617.71 77.36 C 623.13 78.27 627.42 82.14 630.45 86.52 C 634.34 92.62 635.01 99.99 635.61 107.03 C 635.73 121.59 635.49 136.16 635.72 150.72 C 628.90 150.57 622.09 150.58 615.28 150.72 C 615.50 136.79 615.27 122.87 615.41 108.95 C 615.51 105.48 614.81 101.96 613.08 98.93 C 610.94 95.08 605.89 93.44 601.76 94.61 C 596.04 96.10 592.35 102.21 592.59 107.93 C 592.72 122.20 592.50 136.46 592.72 150.72 C 585.91 150.58 579.09 150.58 572.29 150.72 C 572.41 126.24 572.46 101.76 572.26 77.28 C 577.81 77.41 583.37 77.44 588.92 77.26 C 589.88 80.41 589.50 83.72 589.83 86.94 C 590.10 87.29 590.64 87.97 590.91 88.32 C 593.93 84.88 596.86 81.14 601.11 79.16 Z" />
<path fill="#ececec" opacity="1.00" d=" M 777.46 76.55 C 786.55 76.25 796.19 78.70 803.00 85.00 C 810.63 92.05 814.48 102.69 813.79 113.00 C 814.62 123.87 810.79 135.23 802.67 142.67 C 796.30 148.59 787.51 151.11 779.00 151.63 C 772.56 151.15 765.85 150.20 760.27 146.71 C 750.43 140.82 744.04 129.49 744.24 118.00 C 744.29 112.48 743.78 106.80 745.55 101.46 C 748.06 92.60 753.99 84.50 762.41 80.46 C 767.06 78.01 772.31 77.21 777.46 76.55 M 776.32 92.18 C 771.42 93.39 767.86 97.73 766.26 102.34 C 764.24 107.66 764.40 113.45 764.73 119.03 C 765.43 125.25 768.14 132.16 774.25 134.83 C 778.59 136.93 784.03 135.75 787.43 132.42 C 791.08 128.96 792.66 123.89 793.27 119.03 C 793.76 111.78 793.66 103.85 789.34 97.67 C 786.55 93.58 781.28 90.66 776.32 92.18 Z" />
<path fill="#ececec" opacity="1.00" d=" M 1026.55 88.54 C 1035.33 76.98 1052.54 73.16 1065.51 79.52 C 1073.28 83.82 1078.69 91.93 1080.12 100.65 C 1080.56 103.32 1081.22 105.96 1082.00 108.55 L 1082.00 114.47 C 1081.46 116.52 1080.90 118.57 1080.44 120.64 C 1066.13 120.76 1051.81 120.34 1037.50 120.86 C 1037.94 123.61 1038.39 126.54 1040.31 128.71 C 1044.50 133.92 1051.59 135.53 1057.99 135.47 C 1063.90 135.75 1069.52 133.46 1075.39 133.29 C 1075.84 137.92 1076.71 142.50 1077.85 147.00 C 1071.79 149.81 1065.11 150.65 1058.56 151.43 C 1051.94 152.17 1045.26 150.91 1038.95 148.97 C 1028.77 145.45 1021.63 135.90 1019.58 125.53 C 1016.61 112.97 1018.83 99.00 1026.55 88.54 M 1037.62 105.19 C 1044.75 105.57 1051.89 105.28 1059.03 105.41 C 1060.36 105.15 1063.04 105.94 1063.23 103.93 C 1062.77 99.41 1060.79 94.64 1056.67 92.32 C 1054.09 91.03 1051.02 90.16 1048.18 91.01 C 1041.93 92.46 1037.30 98.84 1037.62 105.19 Z" />
<path fill="#ececec" opacity="1.00" d=" M 111.10 188.15 C 135.90 176.05 163.41 169.30 191.02 169.21 C 185.20 171.63 179.20 173.65 173.57 176.52 C 159.49 183.70 146.59 193.23 135.66 204.66 C 116.02 225.20 102.48 250.92 93.76 277.81 C 88.10 296.07 84.32 314.92 82.67 333.97 C 82.79 339.01 81.49 343.95 81.63 348.99 C 81.75 357.42 81.18 365.90 82.47 374.26 C 82.45 379.79 83.73 385.20 83.81 390.72 C 56.31 390.56 28.80 390.58 1.30 390.71 C 1.51 376.52 0.37 362.22 2.37 348.11 C 6.35 314.38 18.48 281.64 37.49 253.49 C 55.86 225.86 81.41 203.01 111.10 188.15 Z" />
<path fill="#ececec" opacity="1.00" d=" M 198.98 169.24 C 214.33 168.85 229.46 173.28 243.23 179.83 C 254.46 185.28 264.45 192.99 273.61 201.40 C 292.87 220.40 306.75 244.96 312.40 271.47 C 313.61 276.18 313.61 281.08 314.74 285.80 C 289.25 285.64 263.77 285.73 238.28 285.76 C 238.31 278.97 238.77 272.13 237.69 265.40 C 237.08 261.03 237.69 256.58 236.88 252.23 C 235.00 233.44 231.55 214.33 222.51 197.54 C 218.78 190.26 213.79 183.72 208.30 177.70 C 205.48 174.56 201.89 172.27 198.98 169.24 Z" />
<path fill="#ececec" opacity="1.00" d=" M 691.28 182.28 C 698.09 182.42 704.91 182.42 711.72 182.28 C 711.52 191.85 711.67 201.42 711.63 211.00 C 711.72 216.37 711.35 221.76 711.92 227.12 C 714.60 224.41 717.05 221.34 720.50 219.53 C 725.44 216.91 731.35 215.65 736.83 217.26 C 742.21 218.17 746.40 222.22 749.44 226.52 C 753.46 232.93 753.91 240.70 754.61 248.03 C 754.73 262.25 754.49 276.49 754.72 290.71 C 747.90 290.58 741.09 290.58 734.28 290.72 C 734.49 276.80 734.28 262.87 734.41 248.95 C 734.59 244.57 733.27 240.01 730.25 236.76 C 726.90 233.78 721.55 233.47 717.72 235.70 C 714.43 238.03 711.42 241.65 711.62 245.92 C 711.69 260.85 711.51 275.78 711.72 290.72 C 704.91 290.58 698.09 290.58 691.28 290.72 C 691.43 254.58 691.43 218.43 691.28 182.28 Z" />
<path fill="#ececec" opacity="1.00" d=" M 420.28 188.28 C 428.38 188.48 436.48 188.30 444.58 188.39 C 452.52 205.54 462.39 221.73 469.90 239.08 C 473.53 246.31 475.92 254.07 479.23 261.44 C 480.87 259.69 480.37 257.24 480.02 255.11 C 478.59 247.52 479.93 239.74 478.85 232.12 C 478.06 226.44 478.44 220.71 478.38 215.00 C 478.32 206.09 478.47 197.19 478.28 188.28 C 484.43 188.42 490.58 188.42 496.74 188.28 C 496.62 222.43 496.62 256.57 496.74 290.72 C 489.63 290.53 482.52 290.69 475.42 290.61 C 464.37 267.39 451.74 244.90 442.04 221.04 C 441.14 218.86 440.53 216.49 439.00 214.63 C 437.23 215.81 437.89 218.13 438.08 219.86 C 439.03 225.53 438.53 231.29 438.63 237.00 C 438.70 254.91 438.59 272.82 438.74 290.72 C 432.59 290.58 426.43 290.57 420.28 290.72 C 420.43 256.58 420.43 222.43 420.28 188.28 Z" />
<path fill="#ececec" opacity="1.00" d=" M 646.21 201.22 C 652.68 199.38 659.26 197.94 665.75 196.19 C 665.57 203.20 665.53 210.23 665.76 217.24 C 670.74 217.45 675.73 217.42 680.72 217.27 C 680.58 222.75 680.58 228.24 680.72 233.73 C 675.74 233.59 670.75 233.53 665.78 233.77 C 665.43 243.53 665.74 253.30 665.60 263.07 C 665.32 267.09 667.15 271.58 671.07 273.19 C 673.95 273.59 676.88 273.34 679.79 273.28 C 679.70 278.81 679.76 284.34 679.80 289.87 C 673.71 291.00 667.32 292.70 661.22 290.72 C 655.92 289.63 651.25 286.04 648.85 281.21 C 647.17 277.37 646.23 273.20 646.26 269.01 C 646.16 260.34 646.19 251.66 646.21 242.99 C 646.18 240.06 646.48 237.08 645.81 234.20 C 643.15 232.98 640.03 233.83 637.19 233.72 C 637.19 228.24 637.19 222.76 637.19 217.27 C 640.00 217.12 643.22 218.12 645.79 216.77 C 646.75 211.66 645.94 206.39 646.21 201.22 Z" />
<path fill="#ececec" opacity="1.00" d=" M 971.22 201.21 C 977.68 199.38 984.25 197.93 990.75 196.18 C 990.57 203.20 990.52 210.22 990.76 217.24 C 995.73 217.45 1000.73 217.42 1005.71 217.27 C 1005.58 222.76 1005.58 228.24 1005.72 233.73 C 1000.74 233.58 995.75 233.54 990.78 233.77 C 990.43 243.53 990.74 253.30 990.60 263.07 C 990.31 267.09 992.15 271.58 996.07 273.19 C 998.95 273.59 1001.88 273.35 1004.79 273.28 C 1004.69 278.80 1004.77 284.33 1004.80 289.86 C 998.71 291.00 992.32 292.71 986.22 290.72 C 980.92 289.63 976.25 286.04 973.85 281.21 C 972.18 277.37 971.24 273.20 971.26 269.01 C 971.16 260.34 971.19 251.67 971.21 243.00 C 971.18 240.07 971.48 237.08 970.81 234.20 C 968.15 232.99 965.02 233.83 962.19 233.73 C 962.19 228.24 962.19 222.75 962.19 217.27 C 965.00 217.11 968.22 218.12 970.79 216.77 C 971.75 211.66 970.92 206.39 971.22 201.21 Z" />
<path fill="#ececec" opacity="1.00" d=" M 542.46 216.55 C 551.54 216.27 561.19 218.69 568.00 225.00 C 575.63 232.06 579.49 242.70 578.79 253.00 C 579.63 264.10 575.62 275.73 567.14 283.13 C 561.92 287.80 555.10 290.21 548.26 291.20 C 543.39 292.25 538.47 291.05 533.69 290.15 C 519.40 286.83 508.94 272.53 509.24 258.01 C 509.24 254.09 509.09 250.17 509.49 246.27 C 511.09 235.58 517.48 225.23 527.41 220.46 C 532.06 218.02 537.31 217.20 542.46 216.55 M 541.32 232.18 C 536.41 233.39 532.87 237.73 531.26 242.34 C 529.24 247.66 529.41 253.45 529.73 259.03 C 530.33 263.90 531.92 268.96 535.59 272.40 C 539.00 275.69 544.40 276.95 548.76 274.85 C 554.59 272.34 557.29 265.87 558.16 259.96 C 558.80 252.65 558.81 244.69 554.77 238.26 C 552.02 233.88 546.55 230.58 541.32 232.18 Z" />
<path fill="#ececec" opacity="1.00" d=" M 615.43 221.43 C 619.39 217.49 625.12 216.25 630.54 216.32 C 630.98 223.42 630.39 230.54 630.92 237.64 C 626.41 235.94 621.33 236.81 617.28 239.27 C 613.14 242.01 610.40 246.92 610.60 251.93 C 610.70 264.86 610.51 277.79 610.72 290.72 C 603.90 290.58 597.09 290.58 590.28 290.72 C 590.42 266.24 590.46 241.76 590.26 217.28 C 595.72 217.42 601.19 217.40 606.66 217.30 C 607.21 222.26 607.59 227.23 608.02 232.21 C 610.94 228.92 611.94 224.29 615.43 221.43 Z" />
<path fill="#ececec" opacity="1.00" d=" M 774.55 228.54 C 783.20 217.15 799.95 213.33 812.87 219.19 C 819.31 222.50 824.20 228.45 826.69 235.21 C 828.30 239.45 828.72 243.99 829.43 248.44 C 830.08 252.53 829.08 256.61 828.61 260.66 C 814.27 260.73 799.92 260.37 785.59 260.84 C 785.58 265.11 787.83 269.26 791.41 271.59 C 796.50 275.22 803.02 275.73 809.07 275.38 C 813.94 275.31 818.53 273.14 823.43 273.33 C 823.75 277.95 824.70 282.50 825.86 286.97 C 819.58 290.01 812.55 290.64 805.73 291.50 C 800.71 292.14 795.72 291.06 790.83 290.07 C 785.21 288.96 780.10 285.92 776.00 281.99 C 771.43 276.94 768.27 270.57 767.26 263.83 C 764.76 251.76 767.21 238.53 774.55 228.54 M 785.61 245.19 C 792.75 245.57 799.89 245.27 807.03 245.42 C 808.37 245.16 811.03 245.93 811.24 243.92 C 810.78 238.37 807.53 232.42 801.70 231.16 C 793.38 228.63 785.08 237.02 785.61 245.19 Z" />
<path fill="#ececec" opacity="1.00" d=" M 840.27 222.99 C 847.71 218.37 856.52 217.16 865.07 216.34 C 869.14 216.21 873.16 217.10 877.10 218.01 C 885.27 220.03 891.82 226.92 893.86 235.03 C 894.85 239.26 895.67 243.58 895.66 247.95 C 895.58 259.99 895.66 272.03 895.60 284.07 C 895.53 286.38 896.02 288.66 896.64 290.88 C 890.57 290.40 884.48 290.68 878.40 290.67 C 878.34 287.79 878.04 284.79 876.23 282.43 C 873.54 285.05 870.83 287.85 867.27 289.25 C 862.21 291.14 856.60 292.18 851.31 290.61 C 841.30 288.60 834.98 278.04 835.45 268.28 C 836.04 263.56 836.78 258.60 839.70 254.69 C 844.91 247.03 854.36 243.68 863.17 242.44 C 867.23 242.10 871.25 241.46 875.31 241.04 C 875.49 238.31 874.64 235.29 872.14 233.83 C 868.31 231.05 863.38 231.53 858.92 231.61 C 853.65 231.70 848.74 233.84 843.98 235.87 C 842.80 231.56 841.86 227.17 840.27 222.99 M 869.35 255.17 C 865.94 255.79 862.31 256.33 859.47 258.47 C 856.11 260.91 854.41 265.42 855.43 269.46 C 856.43 274.72 862.83 277.87 867.68 275.76 C 872.09 273.95 875.66 269.81 876.15 264.96 C 876.40 261.72 876.80 258.29 875.81 255.14 C 873.75 254.21 871.46 254.89 869.35 255.17 Z" />
<path fill="#ececec" opacity="1.00" d=" M 926.67 217.81 C 930.04 217.18 933.44 216.42 936.90 216.43 C 942.92 216.94 948.89 218.16 954.61 220.18 C 953.10 225.04 952.45 230.11 950.96 234.97 C 946.08 233.40 941.22 231.08 935.96 231.56 C 932.48 231.41 928.26 233.28 927.64 237.03 C 927.22 240.42 930.20 242.85 933.04 243.99 C 939.59 246.82 946.77 248.90 952.08 253.92 C 958.67 261.09 959.20 272.76 953.75 280.75 C 950.28 286.29 943.95 289.36 937.69 290.48 C 933.92 291.06 930.13 291.97 926.30 291.53 C 919.83 290.68 912.93 290.28 907.30 286.63 C 907.45 281.40 909.75 276.52 910.29 271.32 C 914.98 273.55 919.93 275.27 925.05 276.18 C 929.02 276.88 933.51 276.40 936.68 273.70 C 937.82 272.24 938.73 270.14 937.88 268.32 C 936.78 264.43 932.61 262.98 929.21 261.73 C 922.14 259.38 914.77 255.86 910.87 249.17 C 907.13 242.81 908.19 234.77 911.56 228.52 C 915.13 223.35 920.42 219.13 926.67 217.81 Z" />
</g>
</svg>
