<?xml version="1.0" encoding="UTF-8" ?>
<!DOCTYPE svg PUBLIC "-//W3C//DTD SVG 1.1//EN" "http://www.w3.org/Graphics/SVG/1.1/DTD/svg11.dtd">
<svg width="500pt" height="136pt" viewBox="0 0 500 136" version="1.1" xmlns="http://www.w3.org/2000/svg">
<g id="#211e1eff">
<path fill="#211e1e" opacity="1.00" d=" M 410.77 0.00 L 499.58 0.00 C 499.69 0.10 499.90 0.31 500.00 0.42 L 500.00 127.54 C 497.09 127.73 494.19 127.87 491.30 128.14 C 490.94 130.36 490.64 132.60 490.30 134.83 C 487.55 135.12 484.79 135.34 482.03 135.34 C 463.02 135.14 444.01 135.30 425.00 135.24 C 417.47 135.15 409.91 135.71 402.41 134.82 C 402.29 97.88 402.43 60.94 402.36 24.00 C 402.25 19.29 402.21 14.56 402.59 9.86 C 404.93 9.47 407.26 9.04 409.61 8.64 C 410.07 5.77 410.39 2.88 410.77 0.00 M 412.21 3.29 L 411.79 4.00 L 412.21 4.71 L 413.04 4.71 L 413.45 4.00 L 413.04 3.29 L 412.21 3.29 M 496.37 3.14 C 495.91 4.55 496.38 5.03 497.79 4.59 C 498.24 3.18 497.76 2.70 496.37 3.14 M 441.29 10.23 C 434.47 12.41 428.31 18.62 428.56 26.15 C 434.62 26.49 440.75 26.88 446.79 26.13 C 448.79 24.69 450.19 22.54 452.30 21.24 C 455.16 20.01 458.61 20.22 461.40 21.58 C 463.21 22.45 463.98 24.66 463.53 26.54 C 461.62 29.50 458.04 30.63 454.94 31.88 C 447.27 34.70 438.95 37.04 433.09 43.09 C 428.19 48.00 425.93 55.01 426.15 61.87 C 431.40 62.71 436.72 62.32 442.00 62.35 C 450.67 62.35 459.33 62.35 468.00 62.35 C 473.28 62.33 478.60 62.70 483.85 61.89 C 484.66 57.41 484.68 52.80 483.61 48.36 C 477.82 47.06 471.87 47.84 466.01 47.66 C 460.50 47.49 455.01 47.83 449.53 48.29 C 458.11 43.89 468.43 43.99 476.56 38.56 C 483.84 33.73 485.91 22.52 480.37 15.63 C 476.58 10.76 470.13 9.38 464.37 8.42 C 456.68 6.93 448.69 7.86 441.29 10.23 M 433.23 66.24 C 431.75 71.27 431.37 76.51 430.54 81.67 C 429.78 86.80 428.51 91.90 428.71 97.12 C 434.60 97.58 440.65 98.00 446.43 96.48 C 450.92 95.32 455.72 94.64 460.28 95.74 C 463.30 96.93 462.90 100.86 462.48 103.46 C 460.66 107.38 455.62 106.77 452.05 106.72 C 447.94 106.70 445.13 102.77 441.06 102.65 C 436.07 102.38 431.06 102.51 426.08 102.98 C 426.48 105.83 427.06 108.78 428.87 111.12 C 432.40 115.92 438.34 118.09 443.98 119.24 C 452.80 121.22 462.19 120.84 470.70 117.75 C 477.68 115.21 483.26 108.57 483.42 100.98 C 483.36 95.31 480.46 89.31 475.20 86.75 C 469.61 83.87 463.15 83.14 456.95 83.60 C 452.88 83.89 449.11 85.53 445.33 86.92 C 445.72 84.77 446.14 82.63 446.57 80.49 C 457.40 80.00 468.26 80.96 479.07 80.09 C 479.64 75.46 479.78 70.76 478.93 66.16 C 470.99 65.16 462.98 65.92 455.00 65.71 C 447.75 65.92 440.44 65.12 433.23 66.24 M 412.21 124.36 C 411.75 125.76 412.23 126.24 413.64 125.79 C 414.08 124.38 413.60 123.91 412.21 124.36 M 497.08 124.06 C 495.76 124.73 495.76 125.41 497.08 126.09 C 498.38 125.41 498.38 124.73 497.08 124.06 Z" />
<path fill="#211e1e" opacity="1.00" d=" M 7.66 1.38 C 12.10 1.10 16.55 1.12 21.00 1.22 C 45.22 1.33 69.44 1.13 93.65 1.27 C 93.90 10.66 94.00 20.07 93.59 29.46 C 90.89 29.71 88.19 29.92 85.49 30.19 C 85.19 32.77 84.86 35.35 84.57 37.94 C 69.77 39.32 54.83 38.48 40.05 40.15 C 39.92 41.59 39.82 43.04 39.74 44.49 C 53.20 44.76 66.60 43.02 80.07 43.17 C 84.65 43.13 89.24 42.40 93.81 43.09 C 93.83 61.72 93.70 80.36 93.79 99.00 C 93.91 103.77 93.95 108.56 93.52 113.32 C 90.86 113.66 88.20 113.98 85.54 114.32 C 85.23 116.83 84.89 119.34 84.62 121.86 C 78.29 123.43 71.75 123.58 65.32 124.39 C 56.21 125.47 47.13 126.72 38.05 128.03 C 25.34 129.90 12.73 132.41 0.00 134.17 L 0.00 104.24 C 2.11 103.53 4.29 103.01 6.34 102.14 C 7.65 99.19 7.40 95.83 7.81 92.68 C 15.89 91.00 24.17 90.63 32.34 89.52 C 39.48 88.57 46.77 88.63 53.77 86.81 C 53.95 85.37 54.10 83.92 54.24 82.48 C 36.11 83.80 18.07 86.20 0.00 88.17 L 0.00 11.30 C 2.29 11.08 4.58 10.86 6.87 10.63 C 7.21 7.56 7.36 4.46 7.66 1.38 M 9.20 2.32 C 8.86 9.87 9.18 17.44 9.08 25.00 C 9.19 42.24 8.87 59.48 9.22 76.71 C 27.07 75.23 44.89 73.09 62.78 72.16 C 63.22 77.38 63.24 82.62 62.76 87.84 C 51.34 89.25 39.84 90.04 28.42 91.43 C 21.97 92.26 15.45 92.58 9.10 94.03 C 9.03 103.44 9.02 112.85 9.13 122.26 C 13.02 122.00 16.87 121.43 20.71 120.77 C 38.74 118.00 56.85 115.79 74.99 113.86 C 80.67 113.22 86.41 112.99 92.05 112.00 C 92.54 106.35 92.28 100.67 92.30 95.00 C 92.31 83.67 92.31 72.33 92.30 61.00 C 92.28 55.42 92.56 49.82 92.03 44.25 C 80.05 44.27 68.10 45.10 56.13 45.43 C 50.19 45.56 44.27 46.29 38.32 45.97 C 38.17 40.69 38.15 35.41 38.33 30.13 C 41.89 29.76 45.46 29.62 49.04 29.58 C 63.33 29.37 77.61 28.66 91.91 28.62 C 92.62 19.88 92.52 11.06 91.99 2.32 C 64.40 2.27 36.80 2.27 9.20 2.32 Z" />
<path fill="#211e1e" opacity="1.00" d=" M 108.42 1.33 C 136.82 1.11 165.24 1.30 193.64 1.23 C 194.10 6.14 194.17 11.07 194.18 16.00 C 194.18 44.33 194.16 72.66 194.19 100.99 C 194.20 104.27 194.03 107.55 193.72 110.82 C 190.98 111.02 188.25 111.13 185.51 111.34 C 185.26 113.77 185.09 116.21 184.81 118.64 C 174.64 118.70 164.47 118.74 154.30 118.67 C 154.25 114.22 154.40 109.76 153.97 105.32 C 149.32 105.12 144.61 104.90 140.04 105.99 C 139.82 107.57 139.65 109.15 139.42 110.72 C 136.83 111.31 134.22 111.76 131.62 112.29 C 131.35 114.53 131.11 116.77 130.84 119.01 C 127.61 119.45 124.35 119.69 121.09 119.80 C 114.17 120.04 107.27 120.89 100.34 120.78 C 100.31 83.99 100.31 47.19 100.34 10.40 C 102.87 10.11 105.42 9.91 107.95 9.59 C 108.16 6.84 108.24 4.08 108.42 1.33 M 109.33 2.34 C 109.26 38.50 109.32 74.66 109.30 110.82 C 119.05 110.61 128.83 110.44 138.55 109.54 C 138.64 105.16 138.48 100.78 138.59 96.40 C 146.73 95.67 154.93 95.62 163.09 95.93 C 163.35 100.30 163.27 104.68 163.27 109.06 C 166.84 109.39 170.43 109.45 174.01 109.37 C 180.17 109.24 186.34 109.66 192.49 109.17 C 192.37 73.62 192.40 38.07 192.48 2.51 C 188.66 2.21 184.82 2.20 180.99 2.27 C 157.11 2.37 133.22 2.19 109.33 2.34 Z" />
<path fill="#211e1e" opacity="1.00" d=" M 208.25 1.15 C 236.73 1.40 265.21 1.07 293.68 1.32 C 293.87 39.66 293.70 78.00 293.77 116.34 C 291.04 116.14 288.30 116.03 285.57 116.08 C 285.34 118.66 285.22 121.24 284.95 123.82 C 274.78 123.38 264.63 122.35 254.50 121.43 C 254.16 100.96 254.48 80.48 254.36 60.00 C 254.23 52.72 254.74 45.43 254.08 38.17 C 249.39 37.70 244.66 37.62 239.96 38.13 C 239.46 45.41 239.87 52.71 239.76 60.00 C 239.68 77.53 239.90 95.07 239.69 112.60 C 237.13 112.59 234.57 112.37 232.02 112.31 C 231.51 114.78 231.48 117.31 231.60 119.82 C 227.41 120.16 223.20 119.93 219.02 119.64 C 212.81 119.23 206.55 119.66 200.37 118.82 C 200.40 82.65 200.37 46.47 200.38 10.30 C 202.79 9.98 205.22 9.77 207.64 9.47 C 207.89 6.70 208.02 3.92 208.25 1.15 M 209.96 2.31 C 209.32 7.52 209.62 12.77 209.62 18.00 C 209.61 43.00 209.61 68.00 209.62 93.00 C 209.64 98.58 209.33 104.19 209.90 109.76 C 219.48 110.38 229.09 110.77 238.69 110.80 C 238.74 89.20 238.67 67.60 238.70 46.00 C 238.75 40.11 238.39 34.20 239.04 28.32 C 247.22 28.39 255.46 28.02 263.60 29.08 C 263.65 56.87 263.52 84.67 263.63 112.47 C 273.28 113.38 282.94 114.22 292.62 114.73 C 292.76 77.28 292.68 39.81 292.66 2.34 C 265.09 2.24 237.52 2.29 209.96 2.31 Z" />
<path fill="#211e1e" opacity="1.00" d=" M 308.62 1.30 C 315.07 0.96 321.54 1.31 328.00 1.25 C 345.00 1.22 362.00 1.25 379.00 1.24 C 384.17 1.17 389.35 1.05 394.53 1.35 C 394.86 6.89 394.71 12.45 394.66 18.00 C 394.67 49.00 394.66 80.00 394.66 111.00 C 394.72 116.45 394.86 121.91 394.50 127.36 C 391.72 127.34 388.95 127.20 386.17 127.20 C 385.77 130.12 385.48 133.06 385.22 136.00 L 383.51 136.00 C 374.16 133.86 364.57 133.31 355.15 131.57 C 354.56 126.80 354.59 122.00 354.67 117.22 C 350.43 115.79 345.97 115.23 341.51 115.47 C 341.04 117.12 340.58 118.77 340.12 120.42 C 337.48 120.71 334.84 120.96 332.20 121.23 C 331.94 123.68 331.65 126.14 331.42 128.60 C 324.72 128.32 318.11 127.15 311.44 126.64 C 307.86 126.34 304.32 125.75 300.82 124.94 C 300.42 118.30 300.72 111.64 300.69 105.00 C 300.67 80.00 300.69 55.00 300.69 30.00 C 300.72 23.58 300.22 17.12 301.18 10.74 C 303.37 10.39 305.57 10.07 307.76 9.71 C 308.09 6.91 308.31 4.10 308.62 1.30 M 310.04 2.32 C 309.44 8.19 309.78 14.10 309.74 20.00 C 309.70 50.01 309.80 80.03 309.68 110.05 C 309.70 112.22 309.87 114.39 310.10 116.55 C 319.74 117.34 329.32 118.79 338.98 119.26 C 339.14 114.49 338.96 109.72 339.13 104.95 C 347.34 105.35 355.53 106.27 363.69 107.24 C 363.92 112.17 363.67 117.10 363.81 122.03 C 369.24 123.48 374.88 123.77 380.44 124.53 C 384.57 125.09 388.70 125.68 392.87 125.95 C 393.29 120.31 393.06 114.65 393.08 109.00 C 393.09 79.00 393.09 49.00 393.08 19.00 C 393.06 13.43 393.30 7.86 392.85 2.31 C 365.25 2.28 337.64 2.27 310.04 2.32 Z" />
<path fill="#211e1e" opacity="1.00" d=" M 122.66 14.57 C 124.16 12.53 125.72 10.53 127.35 8.59 C 129.09 10.18 130.83 11.76 132.61 13.31 C 131.19 15.19 129.73 17.03 128.24 18.85 C 126.38 17.42 124.52 16.00 122.66 14.57 Z" />
<path fill="#211e1e" opacity="1.00" d=" M 14.12 31.71 C 15.86 30.16 17.69 28.73 19.63 27.43 C 21.04 29.23 22.45 31.04 23.85 32.86 C 21.99 34.34 20.14 35.83 18.27 37.31 C 16.89 35.44 15.52 33.57 14.12 31.71 Z" />
<path fill="#211e1e" opacity="1.00" d=" M 138.98 27.91 C 147.00 27.75 155.04 27.55 163.07 27.96 C 163.57 34.96 163.19 41.98 163.28 49.00 C 163.19 56.03 163.56 63.07 163.07 70.09 C 154.94 70.49 146.79 70.46 138.65 70.35 C 138.35 58.55 138.80 46.73 138.49 34.92 C 138.38 32.57 138.55 30.22 138.98 27.91 M 139.98 37.36 C 139.44 43.90 139.88 50.45 139.74 57.00 C 139.65 61.00 139.69 65.01 139.99 69.00 C 144.62 69.45 149.28 69.46 153.91 69.03 C 154.65 62.71 154.18 56.35 154.30 50.01 C 154.39 45.78 154.41 41.55 153.94 37.34 C 149.29 37.12 144.63 37.13 139.98 37.36 Z" />
<path fill="#211e1e" opacity="1.00" d=" M 339.69 30.61 C 347.68 30.29 355.73 30.73 363.72 31.22 C 363.85 46.84 363.77 62.47 363.77 78.10 C 355.60 78.10 347.45 77.24 339.33 76.55 C 338.58 63.38 339.42 50.16 338.96 36.97 C 339.16 34.89 338.43 32.39 339.69 30.61 M 340.89 40.50 C 340.41 46.32 340.68 52.16 340.66 58.00 C 340.69 63.64 340.36 69.31 340.96 74.94 C 345.43 75.97 350.04 76.51 354.62 75.93 C 354.73 64.38 354.68 52.82 354.65 41.27 C 350.09 40.64 345.49 40.42 340.89 40.50 Z" />
</g>
<g id="#fefefeff">
<path fill="#fefefe" opacity="1.00" d=" M 9.20 2.32 C 36.80 2.27 64.40 2.27 91.99 2.32 C 92.52 11.06 92.62 19.88 91.91 28.62 C 77.61 28.66 63.33 29.37 49.04 29.58 C 45.46 29.62 41.89 29.76 38.33 30.13 C 38.15 35.41 38.17 40.69 38.32 45.97 C 44.27 46.29 50.19 45.56 56.13 45.43 C 68.10 45.10 80.05 44.27 92.03 44.25 C 92.56 49.82 92.28 55.42 92.30 61.00 C 92.31 72.33 92.31 83.67 92.30 95.00 C 92.28 100.67 92.54 106.35 92.05 112.00 C 86.41 112.99 80.67 113.22 74.99 113.86 C 56.85 115.79 38.74 118.00 20.71 120.77 C 16.87 121.43 13.02 122.00 9.13 122.26 C 9.02 112.85 9.03 103.44 9.10 94.03 C 15.45 92.58 21.97 92.26 28.42 91.43 C 39.84 90.04 51.34 89.25 62.76 87.84 C 63.24 82.62 63.22 77.38 62.78 72.16 C 44.89 73.09 27.07 75.23 9.22 76.71 C 8.87 59.48 9.19 42.24 9.08 25.00 C 9.18 17.44 8.86 9.87 9.20 2.32 M 14.12 31.71 C 15.52 33.57 16.89 35.44 18.27 37.31 C 20.14 35.83 21.99 34.34 23.85 32.86 C 22.45 31.04 21.04 29.23 19.63 27.43 C 17.69 28.73 15.86 30.16 14.12 31.71 Z" />
<path fill="#fefefe" opacity="1.00" d=" M 109.33 2.34 C 133.22 2.19 157.11 2.37 180.99 2.27 C 184.82 2.20 188.66 2.21 192.48 2.51 C 192.40 38.07 192.37 73.62 192.49 109.17 C 186.34 109.66 180.17 109.24 174.01 109.37 C 170.43 109.45 166.84 109.39 163.27 109.06 C 163.27 104.68 163.35 100.30 163.09 95.93 C 154.93 95.62 146.73 95.67 138.59 96.40 C 138.48 100.78 138.64 105.16 138.55 109.54 C 128.83 110.44 119.05 110.61 109.30 110.82 C 109.32 74.66 109.26 38.50 109.33 2.34 M 122.66 14.57 C 124.52 16.00 126.38 17.42 128.24 18.85 C 129.73 17.03 131.19 15.19 132.61 13.31 C 130.83 11.76 129.09 10.18 127.35 8.59 C 125.72 10.53 124.16 12.53 122.66 14.57 M 138.98 27.91 C 138.55 30.22 138.38 32.57 138.49 34.92 C 138.80 46.73 138.35 58.55 138.65 70.35 C 146.79 70.46 154.94 70.49 163.07 70.09 C 163.56 63.07 163.19 56.03 163.28 49.00 C 163.19 41.98 163.57 34.96 163.07 27.96 C 155.04 27.55 147.00 27.75 138.98 27.91 Z" />
<path fill="#fefefe" opacity="1.00" d=" M 209.96 2.31 C 237.52 2.29 265.09 2.24 292.66 2.34 C 292.68 39.81 292.76 77.28 292.62 114.73 C 282.94 114.22 273.28 113.38 263.63 112.47 C 263.52 84.67 263.65 56.87 263.60 29.08 C 255.46 28.02 247.22 28.39 239.04 28.32 C 238.39 34.20 238.75 40.11 238.70 46.00 C 238.67 67.60 238.74 89.20 238.69 110.80 C 229.09 110.77 219.48 110.38 209.90 109.76 C 209.33 104.19 209.64 98.58 209.62 93.00 C 209.61 68.00 209.61 43.00 209.62 18.00 C 209.62 12.77 209.32 7.52 209.96 2.31 Z" />
<path fill="#fefefe" opacity="1.00" d=" M 310.04 2.32 C 337.64 2.27 365.25 2.28 392.85 2.31 C 393.30 7.86 393.06 13.43 393.08 19.00 C 393.09 49.00 393.09 79.00 393.08 109.00 C 393.06 114.65 393.29 120.31 392.87 125.95 C 388.70 125.68 384.57 125.09 380.44 124.53 C 374.88 123.77 369.24 123.48 363.81 122.03 C 363.67 117.10 363.92 112.17 363.69 107.24 C 355.53 106.27 347.34 105.35 339.13 104.95 C 338.96 109.72 339.14 114.49 338.98 119.26 C 329.32 118.79 319.74 117.34 310.10 116.55 C 309.87 114.39 309.70 112.22 309.68 110.05 C 309.80 80.03 309.70 50.01 309.74 20.00 C 309.78 14.10 309.44 8.19 310.04 2.32 M 339.69 30.61 C 338.43 32.39 339.16 34.89 338.96 36.97 C 339.42 50.16 338.58 63.38 339.33 76.55 C 347.45 77.24 355.60 78.10 363.77 78.10 C 363.77 62.47 363.85 46.84 363.72 31.22 C 355.73 30.73 347.68 30.29 339.69 30.61 Z" />
<path fill="#fefefe" opacity="1.00" d=" M 412.21 3.29 L 413.04 3.29 L 413.45 4.00 L 413.04 4.71 L 412.21 4.71 L 411.79 4.00 L 412.21 3.29 Z" />
<path fill="#fefefe" opacity="1.00" d=" M 496.37 3.14 C 497.76 2.70 498.24 3.18 497.79 4.59 C 496.38 5.03 495.91 4.55 496.37 3.14 Z" />
<path fill="#fefefe" opacity="1.00" d=" M 441.29 10.23 C 448.69 7.86 456.68 6.93 464.37 8.42 C 470.13 9.38 476.58 10.76 480.37 15.63 C 485.91 22.52 483.84 33.73 476.56 38.56 C 468.43 43.99 458.11 43.89 449.53 48.29 C 455.01 47.83 460.50 47.49 466.01 47.66 C 471.87 47.84 477.82 47.06 483.61 48.36 C 484.68 52.80 484.66 57.41 483.85 61.89 C 478.60 62.70 473.28 62.33 468.00 62.35 C 459.33 62.35 450.67 62.35 442.00 62.35 C 436.72 62.32 431.40 62.71 426.15 61.87 C 425.93 55.01 428.19 48.00 433.09 43.09 C 438.95 37.04 447.27 34.70 454.94 31.88 C 458.04 30.63 461.62 29.50 463.53 26.54 C 463.98 24.66 463.21 22.45 461.40 21.58 C 458.61 20.22 455.16 20.01 452.30 21.24 C 450.19 22.54 448.79 24.69 446.79 26.13 C 440.75 26.88 434.62 26.49 428.56 26.15 C 428.31 18.62 434.47 12.41 441.29 10.23 Z" />
<path fill="#fefefe" opacity="1.00" d=" M 433.23 66.24 C 440.44 65.12 447.75 65.92 455.00 65.71 C 462.98 65.92 470.99 65.16 478.93 66.16 C 479.78 70.76 479.64 75.46 479.07 80.09 C 468.26 80.96 457.40 80.00 446.57 80.49 C 446.14 82.63 445.72 84.77 445.33 86.92 C 449.11 85.53 452.88 83.89 456.95 83.60 C 463.15 83.14 469.61 83.87 475.20 86.75 C 480.46 89.31 483.36 95.31 483.42 100.98 C 483.26 108.57 477.68 115.21 470.70 117.75 C 462.19 120.84 452.80 121.22 443.98 119.24 C 438.34 118.09 432.40 115.92 428.87 111.12 C 427.06 108.78 426.48 105.83 426.08 102.98 C 431.06 102.51 436.07 102.38 441.06 102.65 C 445.13 102.77 447.94 106.70 452.05 106.72 C 455.62 106.77 460.66 107.38 462.48 103.46 C 462.90 100.86 463.30 96.93 460.28 95.74 C 455.72 94.64 450.92 95.32 446.43 96.48 C 440.65 98.00 434.60 97.58 428.71 97.12 C 428.51 91.90 429.78 86.80 430.54 81.67 C 431.37 76.51 431.75 71.27 433.23 66.24 Z" />
<path fill="#fefefe" opacity="1.00" d=" M 412.21 124.36 C 413.60 123.91 414.08 124.38 413.64 125.79 C 412.23 126.24 411.75 125.76 412.21 124.36 Z" />
<path fill="#fefefe" opacity="1.00" d=" M 497.08 124.06 C 498.38 124.73 498.38 125.41 497.08 126.09 C 495.76 125.41 495.76 124.73 497.08 124.06 Z" />
</g>
</svg>
