<?xml version="1.0" encoding="UTF-8" ?>
<!DOCTYPE svg PUBLIC "-//W3C//DTD SVG 1.1//EN" "http://www.w3.org/Graphics/SVG/1.1/DTD/svg11.dtd">
<svg width="945pt" height="945pt" viewBox="0 0 945 945" version="1.1" xmlns="http://www.w3.org/2000/svg">
<g id="#b9bed2c8">
<path fill="#b9bed2" opacity="0.78" d=" M 27.32 10.29 C 34.97 9.58 41.59 19.64 37.36 26.34 C 35.24 30.57 29.90 34.70 25.15 31.88 C 15.56 28.07 17.19 12.11 27.32 10.29 Z" />
<path fill="#b9bed2" opacity="0.78" d=" M 109.32 10.29 C 116.97 9.58 123.59 19.64 119.36 26.34 C 117.24 30.57 111.90 34.70 107.15 31.88 C 97.55 28.07 99.19 12.11 109.32 10.29 Z" />
<path fill="#b9bed2" opacity="0.78" d=" M 191.32 10.29 C 198.97 9.58 205.59 19.64 201.36 26.34 C 199.24 30.57 193.90 34.70 189.15 31.88 C 179.55 28.07 181.19 12.11 191.32 10.29 Z" />
<path fill="#b9bed2" opacity="0.78" d=" M 273.32 10.29 C 280.97 9.58 287.59 19.64 283.36 26.34 C 281.24 30.57 275.90 34.70 271.15 31.88 C 261.55 28.07 263.19 12.11 273.32 10.29 Z" />
<path fill="#b9bed2" opacity="0.78" d=" M 355.32 10.29 C 362.97 9.58 369.59 19.64 365.36 26.34 C 363.24 30.57 357.90 34.70 353.15 31.88 C 343.55 28.07 345.19 12.11 355.32 10.29 Z" />
<path fill="#b9bed2" opacity="0.78" d=" M 437.32 10.29 C 444.97 9.58 451.59 19.64 447.36 26.34 C 445.24 30.57 439.90 34.70 435.15 31.88 C 425.55 28.07 427.19 12.11 437.32 10.29 Z" />
<path fill="#b9bed2" opacity="0.78" d=" M 519.32 10.29 C 526.97 9.58 533.59 19.64 529.36 26.34 C 527.23 30.57 521.90 34.70 517.15 31.88 C 507.55 28.07 509.19 12.11 519.32 10.29 Z" />
<path fill="#b9bed2" opacity="0.78" d=" M 601.32 10.29 C 608.97 9.58 615.59 19.64 611.36 26.34 C 609.23 30.57 603.90 34.70 599.15 31.88 C 589.55 28.07 591.19 12.11 601.32 10.29 Z" />
<path fill="#b9bed2" opacity="0.78" d=" M 683.32 10.29 C 690.97 9.58 697.59 19.64 693.36 26.34 C 691.23 30.57 685.90 34.70 681.15 31.88 C 671.55 28.07 673.19 12.11 683.32 10.29 Z" />
<path fill="#b9bed2" opacity="0.78" d=" M 765.32 10.29 C 772.97 9.58 779.59 19.64 775.36 26.34 C 773.23 30.57 767.90 34.70 763.15 31.88 C 753.55 28.07 755.18 12.11 765.32 10.29 Z" />
<path fill="#b9bed2" opacity="0.78" d=" M 847.32 10.29 C 854.97 9.58 861.59 19.64 857.36 26.34 C 855.23 30.57 849.90 34.70 845.15 31.88 C 835.55 28.07 837.18 12.11 847.32 10.29 Z" />
<path fill="#b9bed2" opacity="0.78" d=" M 930.32 10.29 C 937.96 9.58 944.59 19.64 940.36 26.34 C 938.23 30.57 932.90 34.70 928.15 31.88 C 918.55 28.07 920.18 12.11 930.32 10.29 Z" />
<path fill="#b9bed2" opacity="0.78" d=" M 27.32 92.29 C 34.97 91.58 41.59 101.64 37.36 108.34 C 35.24 112.57 29.90 116.70 25.15 113.88 C 15.56 110.07 17.19 94.11 27.32 92.29 Z" />
<path fill="#b9bed2" opacity="0.78" d=" M 109.32 92.29 C 116.97 91.58 123.59 101.64 119.36 108.34 C 117.24 112.57 111.90 116.70 107.15 113.88 C 97.55 110.07 99.19 94.11 109.32 92.29 Z" />
<path fill="#b9bed2" opacity="0.78" d=" M 191.32 92.29 C 198.97 91.58 205.59 101.64 201.36 108.34 C 199.24 112.57 193.90 116.70 189.15 113.88 C 179.55 110.07 181.19 94.11 191.32 92.29 Z" />
<path fill="#b9bed2" opacity="0.78" d=" M 273.32 92.29 C 280.97 91.58 287.59 101.64 283.36 108.34 C 281.24 112.57 275.90 116.70 271.15 113.88 C 261.55 110.07 263.19 94.11 273.32 92.29 Z" />
<path fill="#b9bed2" opacity="0.78" d=" M 355.32 92.29 C 362.97 91.58 369.59 101.64 365.36 108.34 C 363.24 112.57 357.90 116.70 353.15 113.88 C 343.55 110.07 345.19 94.11 355.32 92.29 Z" />
<path fill="#b9bed2" opacity="0.78" d=" M 437.32 92.29 C 444.97 91.58 451.59 101.64 447.36 108.34 C 445.24 112.57 439.90 116.70 435.15 113.88 C 425.55 110.07 427.19 94.11 437.32 92.29 Z" />
<path fill="#b9bed2" opacity="0.78" d=" M 519.32 92.29 C 526.97 91.58 533.59 101.64 529.36 108.34 C 527.23 112.57 521.90 116.70 517.15 113.88 C 507.55 110.07 509.19 94.11 519.32 92.29 Z" />
<path fill="#b9bed2" opacity="0.78" d=" M 601.32 92.29 C 608.97 91.58 615.59 101.64 611.36 108.34 C 609.23 112.57 603.90 116.70 599.15 113.88 C 589.55 110.07 591.19 94.11 601.32 92.29 Z" />
<path fill="#b9bed2" opacity="0.78" d=" M 683.32 92.29 C 690.97 91.58 697.59 101.64 693.36 108.34 C 691.23 112.57 685.90 116.70 681.15 113.88 C 671.55 110.07 673.19 94.11 683.32 92.29 Z" />
<path fill="#b9bed2" opacity="0.78" d=" M 765.32 92.29 C 772.97 91.58 779.59 101.64 775.36 108.34 C 773.23 112.57 767.90 116.70 763.15 113.88 C 753.55 110.07 755.18 94.11 765.32 92.29 Z" />
<path fill="#b9bed2" opacity="0.78" d=" M 847.32 92.29 C 854.97 91.58 861.59 101.64 857.36 108.34 C 855.23 112.57 849.90 116.70 845.15 113.88 C 835.55 110.07 837.18 94.11 847.32 92.29 Z" />
<path fill="#b9bed2" opacity="0.78" d=" M 930.32 92.29 C 937.96 91.58 944.59 101.64 940.36 108.34 C 938.23 112.57 932.90 116.70 928.15 113.88 C 918.55 110.07 920.18 94.11 930.32 92.29 Z" />
<path fill="#b9bed2" opacity="0.78" d=" M 27.32 174.29 C 34.97 173.58 41.59 183.64 37.36 190.34 C 35.24 194.57 29.90 198.70 25.15 195.88 C 15.56 192.07 17.19 176.11 27.32 174.29 Z" />
<path fill="#b9bed2" opacity="0.78" d=" M 109.32 174.29 C 116.97 173.58 123.59 183.64 119.36 190.34 C 117.24 194.57 111.90 198.70 107.15 195.88 C 97.55 192.07 99.19 176.11 109.32 174.29 Z" />
<path fill="#b9bed2" opacity="0.78" d=" M 191.32 174.29 C 198.97 173.58 205.59 183.64 201.36 190.34 C 199.24 194.57 193.90 198.70 189.15 195.88 C 179.55 192.07 181.19 176.11 191.32 174.29 Z" />
<path fill="#b9bed2" opacity="0.78" d=" M 273.32 174.29 C 280.97 173.58 287.59 183.64 283.36 190.34 C 281.24 194.57 275.90 198.70 271.15 195.88 C 261.55 192.07 263.19 176.11 273.32 174.29 Z" />
<path fill="#b9bed2" opacity="0.78" d=" M 355.32 174.29 C 362.97 173.58 369.59 183.64 365.36 190.34 C 363.24 194.57 357.90 198.70 353.15 195.88 C 343.55 192.07 345.19 176.11 355.32 174.29 Z" />
<path fill="#b9bed2" opacity="0.78" d=" M 437.32 174.29 C 444.97 173.58 451.59 183.64 447.36 190.34 C 445.24 194.57 439.90 198.70 435.15 195.88 C 425.55 192.07 427.19 176.11 437.32 174.29 Z" />
<path fill="#b9bed2" opacity="0.78" d=" M 519.32 174.29 C 526.97 173.58 533.59 183.64 529.36 190.34 C 527.23 194.57 521.90 198.70 517.15 195.88 C 507.55 192.07 509.19 176.11 519.32 174.29 Z" />
<path fill="#b9bed2" opacity="0.78" d=" M 601.32 174.29 C 608.97 173.58 615.59 183.64 611.36 190.34 C 609.23 194.57 603.90 198.70 599.15 195.88 C 589.55 192.07 591.19 176.11 601.32 174.29 Z" />
<path fill="#b9bed2" opacity="0.78" d=" M 683.32 174.29 C 690.97 173.58 697.59 183.64 693.36 190.34 C 691.23 194.57 685.90 198.70 681.15 195.88 C 671.55 192.07 673.19 176.11 683.32 174.29 Z" />
<path fill="#b9bed2" opacity="0.78" d=" M 765.32 174.29 C 772.97 173.58 779.59 183.64 775.36 190.34 C 773.23 194.57 767.90 198.70 763.15 195.88 C 753.55 192.07 755.18 176.11 765.32 174.29 Z" />
<path fill="#b9bed2" opacity="0.78" d=" M 847.32 174.29 C 854.97 173.58 861.59 183.64 857.36 190.34 C 855.23 194.57 849.90 198.70 845.15 195.88 C 835.55 192.07 837.18 176.11 847.32 174.29 Z" />
<path fill="#b9bed2" opacity="0.78" d=" M 930.32 174.29 C 937.96 173.58 944.59 183.64 940.36 190.34 C 938.23 194.57 932.90 198.70 928.15 195.88 C 918.55 192.07 920.18 176.11 930.32 174.29 Z" />
<path fill="#b9bed2" opacity="0.78" d=" M 27.32 256.29 C 34.97 255.58 41.59 265.64 37.36 272.34 C 35.24 276.57 29.90 280.70 25.15 277.88 C 15.56 274.07 17.19 258.11 27.32 256.29 Z" />
<path fill="#b9bed2" opacity="0.78" d=" M 109.32 256.29 C 116.97 255.58 123.59 265.64 119.36 272.34 C 117.24 276.57 111.90 280.70 107.15 277.88 C 97.55 274.07 99.19 258.11 109.32 256.29 Z" />
<path fill="#b9bed2" opacity="0.78" d=" M 191.32 256.29 C 198.97 255.58 205.59 265.64 201.36 272.34 C 199.24 276.57 193.90 280.70 189.15 277.88 C 179.55 274.07 181.19 258.11 191.32 256.29 Z" />
<path fill="#b9bed2" opacity="0.78" d=" M 273.32 256.29 C 280.97 255.58 287.59 265.64 283.36 272.34 C 281.24 276.57 275.90 280.70 271.15 277.88 C 261.55 274.07 263.19 258.11 273.32 256.29 Z" />
<path fill="#b9bed2" opacity="0.78" d=" M 355.32 256.29 C 362.97 255.58 369.59 265.64 365.36 272.34 C 363.24 276.57 357.90 280.70 353.15 277.88 C 343.55 274.07 345.19 258.11 355.32 256.29 Z" />
<path fill="#b9bed2" opacity="0.78" d=" M 437.32 256.29 C 444.97 255.58 451.59 265.64 447.36 272.34 C 445.24 276.57 439.90 280.70 435.15 277.88 C 425.55 274.07 427.19 258.11 437.32 256.29 Z" />
<path fill="#b9bed2" opacity="0.78" d=" M 519.32 256.29 C 526.97 255.58 533.59 265.64 529.36 272.34 C 527.23 276.57 521.90 280.70 517.15 277.88 C 507.55 274.07 509.19 258.11 519.32 256.29 Z" />
<path fill="#b9bed2" opacity="0.78" d=" M 601.32 256.29 C 608.97 255.58 615.59 265.64 611.36 272.34 C 609.23 276.57 603.90 280.70 599.15 277.88 C 589.55 274.07 591.19 258.11 601.32 256.29 Z" />
<path fill="#b9bed2" opacity="0.78" d=" M 683.32 256.29 C 690.97 255.58 697.59 265.64 693.36 272.34 C 691.23 276.57 685.90 280.70 681.15 277.88 C 671.55 274.07 673.19 258.11 683.32 256.29 Z" />
<path fill="#b9bed2" opacity="0.78" d=" M 765.32 256.29 C 772.97 255.58 779.59 265.64 775.36 272.34 C 773.23 276.57 767.90 280.70 763.15 277.88 C 753.55 274.07 755.18 258.11 765.32 256.29 Z" />
<path fill="#b9bed2" opacity="0.78" d=" M 847.32 256.29 C 854.97 255.58 861.59 265.64 857.36 272.34 C 855.23 276.57 849.90 280.70 845.15 277.88 C 835.55 274.07 837.18 258.11 847.32 256.29 Z" />
<path fill="#b9bed2" opacity="0.78" d=" M 930.32 256.29 C 937.96 255.58 944.59 265.64 940.36 272.34 C 938.23 276.57 932.90 280.70 928.15 277.88 C 918.55 274.07 920.18 258.11 930.32 256.29 Z" />
<path fill="#b9bed2" opacity="0.78" d=" M 27.32 338.29 C 34.97 337.58 41.59 347.64 37.36 354.34 C 35.24 358.57 29.90 362.70 25.15 359.88 C 15.56 356.07 17.19 340.11 27.32 338.29 Z" />
<path fill="#b9bed2" opacity="0.78" d=" M 109.32 338.29 C 116.97 337.58 123.59 347.64 119.36 354.34 C 117.24 358.57 111.90 362.70 107.15 359.88 C 97.55 356.07 99.19 340.11 109.32 338.29 Z" />
<path fill="#b9bed2" opacity="0.78" d=" M 191.32 338.29 C 198.97 337.58 205.59 347.64 201.36 354.34 C 199.24 358.57 193.90 362.70 189.15 359.88 C 179.55 356.07 181.19 340.11 191.32 338.29 Z" />
<path fill="#b9bed2" opacity="0.78" d=" M 273.32 338.29 C 280.97 337.58 287.59 347.64 283.36 354.34 C 281.24 358.57 275.90 362.70 271.15 359.88 C 261.55 356.07 263.19 340.11 273.32 338.29 Z" />
<path fill="#b9bed2" opacity="0.78" d=" M 355.32 338.29 C 362.97 337.58 369.59 347.64 365.36 354.34 C 363.24 358.57 357.90 362.70 353.15 359.88 C 343.55 356.07 345.19 340.11 355.32 338.29 Z" />
<path fill="#b9bed2" opacity="0.78" d=" M 437.32 338.29 C 444.97 337.58 451.59 347.64 447.36 354.34 C 445.24 358.57 439.90 362.70 435.15 359.88 C 425.55 356.07 427.19 340.11 437.32 338.29 Z" />
<path fill="#b9bed2" opacity="0.78" d=" M 519.32 338.29 C 526.97 337.58 533.59 347.64 529.36 354.34 C 527.23 358.57 521.90 362.70 517.15 359.88 C 507.55 356.07 509.19 340.11 519.32 338.29 Z" />
<path fill="#b9bed2" opacity="0.78" d=" M 601.32 338.29 C 608.97 337.58 615.59 347.64 611.36 354.34 C 609.23 358.57 603.90 362.70 599.15 359.88 C 589.55 356.07 591.19 340.11 601.32 338.29 Z" />
<path fill="#b9bed2" opacity="0.78" d=" M 683.32 338.29 C 690.97 337.58 697.59 347.64 693.36 354.34 C 691.23 358.57 685.90 362.70 681.15 359.88 C 671.55 356.07 673.19 340.11 683.32 338.29 Z" />
<path fill="#b9bed2" opacity="0.78" d=" M 765.32 338.29 C 772.97 337.58 779.59 347.64 775.36 354.34 C 773.23 358.57 767.90 362.70 763.15 359.88 C 753.55 356.07 755.18 340.11 765.32 338.29 Z" />
<path fill="#b9bed2" opacity="0.78" d=" M 847.32 338.29 C 854.97 337.58 861.59 347.64 857.36 354.34 C 855.23 358.57 849.90 362.70 845.15 359.88 C 835.55 356.07 837.18 340.11 847.32 338.29 Z" />
<path fill="#b9bed2" opacity="0.78" d=" M 930.32 338.29 C 937.96 337.58 944.59 347.64 940.36 354.34 C 938.23 358.57 932.90 362.70 928.15 359.88 C 918.55 356.07 920.18 340.11 930.32 338.29 Z" />
<path fill="#b9bed2" opacity="0.78" d=" M 27.32 420.29 C 34.97 419.58 41.59 429.64 37.36 436.34 C 35.24 440.57 29.90 444.70 25.15 441.88 C 15.56 438.07 17.19 422.11 27.32 420.29 Z" />
<path fill="#b9bed2" opacity="0.78" d=" M 109.32 420.29 C 116.97 419.58 123.59 429.64 119.36 436.34 C 117.24 440.57 111.90 444.70 107.15 441.88 C 97.55 438.07 99.19 422.11 109.32 420.29 Z" />
<path fill="#b9bed2" opacity="0.78" d=" M 191.32 420.29 C 198.97 419.58 205.59 429.64 201.36 436.34 C 199.24 440.57 193.90 444.70 189.15 441.88 C 179.55 438.07 181.19 422.11 191.32 420.29 Z" />
<path fill="#b9bed2" opacity="0.78" d=" M 273.32 420.29 C 280.97 419.58 287.59 429.64 283.36 436.34 C 281.24 440.57 275.90 444.70 271.15 441.88 C 261.55 438.07 263.19 422.11 273.32 420.29 Z" />
<path fill="#b9bed2" opacity="0.78" d=" M 355.32 420.29 C 362.97 419.58 369.59 429.64 365.36 436.34 C 363.24 440.57 357.90 444.70 353.15 441.88 C 343.55 438.07 345.19 422.11 355.32 420.29 Z" />
<path fill="#b9bed2" opacity="0.78" d=" M 437.32 420.29 C 444.97 419.58 451.59 429.64 447.36 436.34 C 445.24 440.57 439.90 444.70 435.15 441.88 C 425.55 438.07 427.19 422.11 437.32 420.29 Z" />
<path fill="#b9bed2" opacity="0.78" d=" M 27.32 502.29 C 34.97 501.58 41.59 511.64 37.36 518.34 C 35.24 522.57 29.90 526.70 25.15 523.88 C 15.56 520.07 17.19 504.11 27.32 502.29 Z" />
<path fill="#b9bed2" opacity="0.78" d=" M 109.32 502.29 C 116.97 501.58 123.59 511.64 119.36 518.34 C 117.24 522.57 111.90 526.70 107.15 523.88 C 97.55 520.07 99.19 504.11 109.32 502.29 Z" />
<path fill="#b9bed2" opacity="0.78" d=" M 191.32 502.29 C 198.97 501.58 205.59 511.64 201.36 518.34 C 199.24 522.57 193.90 526.70 189.15 523.88 C 179.55 520.07 181.19 504.11 191.32 502.29 Z" />
<path fill="#b9bed2" opacity="0.78" d=" M 273.32 502.29 C 280.97 501.58 287.59 511.64 283.36 518.34 C 281.24 522.57 275.90 526.70 271.15 523.88 C 261.55 520.07 263.19 504.11 273.32 502.29 Z" />
<path fill="#b9bed2" opacity="0.78" d=" M 355.32 502.29 C 362.97 501.58 369.59 511.64 365.36 518.34 C 363.24 522.57 357.90 526.70 353.15 523.88 C 343.55 520.07 345.19 504.11 355.32 502.29 Z" />
<path fill="#b9bed2" opacity="0.78" d=" M 437.32 502.29 C 444.97 501.58 451.59 511.64 447.36 518.34 C 445.24 522.57 439.90 526.70 435.15 523.88 C 425.55 520.07 427.19 504.11 437.32 502.29 Z" />
<path fill="#b9bed2" opacity="0.78" d=" M 27.32 584.29 C 34.97 583.58 41.59 593.64 37.36 600.34 C 35.24 604.56 29.90 608.70 25.15 605.88 C 15.56 602.07 17.19 586.11 27.32 584.29 Z" />
<path fill="#b9bed2" opacity="0.78" d=" M 109.32 584.29 C 116.97 583.58 123.59 593.64 119.36 600.34 C 117.24 604.56 111.90 608.70 107.15 605.88 C 97.55 602.07 99.19 586.11 109.32 584.29 Z" />
<path fill="#b9bed2" opacity="0.78" d=" M 191.32 584.29 C 198.97 583.58 205.59 593.64 201.36 600.34 C 199.24 604.56 193.90 608.70 189.15 605.88 C 179.55 602.07 181.19 586.11 191.32 584.29 Z" />
<path fill="#b9bed2" opacity="0.78" d=" M 273.32 584.29 C 280.97 583.58 287.59 593.64 283.36 600.34 C 281.24 604.56 275.90 608.70 271.15 605.88 C 261.55 602.07 263.19 586.11 273.32 584.29 Z" />
<path fill="#b9bed2" opacity="0.78" d=" M 355.32 584.29 C 362.97 583.58 369.59 593.64 365.36 600.34 C 363.24 604.56 357.90 608.70 353.15 605.88 C 343.55 602.07 345.19 586.11 355.32 584.29 Z" />
<path fill="#b9bed2" opacity="0.78" d=" M 437.32 584.29 C 444.97 583.58 451.59 593.64 447.36 600.34 C 445.24 604.56 439.90 608.70 435.15 605.88 C 425.55 602.07 427.19 586.11 437.32 584.29 Z" />
<path fill="#b9bed2" opacity="0.78" d=" M 27.32 666.29 C 34.97 665.58 41.59 675.64 37.36 682.34 C 35.24 686.56 29.90 690.70 25.15 687.88 C 15.56 684.07 17.19 668.11 27.32 666.29 Z" />
<path fill="#b9bed2" opacity="0.78" d=" M 109.32 666.29 C 116.97 665.58 123.59 675.64 119.36 682.34 C 117.24 686.56 111.90 690.70 107.15 687.88 C 97.55 684.07 99.19 668.11 109.32 666.29 Z" />
<path fill="#b9bed2" opacity="0.78" d=" M 191.32 666.29 C 198.97 665.58 205.59 675.64 201.36 682.34 C 199.24 686.56 193.90 690.70 189.15 687.88 C 179.55 684.07 181.19 668.11 191.32 666.29 Z" />
<path fill="#b9bed2" opacity="0.78" d=" M 273.32 666.29 C 280.97 665.58 287.59 675.64 283.36 682.34 C 281.24 686.56 275.90 690.70 271.15 687.88 C 261.55 684.07 263.19 668.11 273.32 666.29 Z" />
<path fill="#b9bed2" opacity="0.78" d=" M 355.32 666.29 C 362.97 665.58 369.59 675.64 365.36 682.34 C 363.24 686.56 357.90 690.70 353.15 687.88 C 343.55 684.07 345.19 668.11 355.32 666.29 Z" />
<path fill="#b9bed2" opacity="0.78" d=" M 437.32 666.29 C 444.97 665.58 451.59 675.64 447.36 682.34 C 445.24 686.56 439.90 690.70 435.15 687.88 C 425.55 684.07 427.19 668.11 437.32 666.29 Z" />
<path fill="#b9bed2" opacity="0.78" d=" M 27.32 748.29 C 34.97 747.58 41.59 757.64 37.36 764.34 C 35.24 768.56 29.90 772.70 25.15 769.88 C 15.56 766.07 17.19 750.11 27.32 748.29 Z" />
<path fill="#b9bed2" opacity="0.78" d=" M 109.32 748.29 C 116.97 747.58 123.59 757.64 119.36 764.34 C 117.24 768.56 111.90 772.70 107.15 769.88 C 97.55 766.07 99.19 750.11 109.32 748.29 Z" />
<path fill="#b9bed2" opacity="0.78" d=" M 191.32 748.29 C 198.97 747.58 205.59 757.64 201.36 764.34 C 199.24 768.56 193.90 772.70 189.15 769.88 C 179.55 766.07 181.19 750.11 191.32 748.29 Z" />
<path fill="#b9bed2" opacity="0.78" d=" M 273.32 748.29 C 280.97 747.58 287.59 757.64 283.36 764.34 C 281.24 768.56 275.90 772.70 271.15 769.88 C 261.55 766.07 263.19 750.11 273.32 748.29 Z" />
<path fill="#b9bed2" opacity="0.78" d=" M 355.32 748.29 C 362.97 747.58 369.59 757.64 365.36 764.34 C 363.24 768.56 357.90 772.70 353.15 769.88 C 343.55 766.07 345.19 750.11 355.32 748.29 Z" />
<path fill="#b9bed2" opacity="0.78" d=" M 437.32 748.29 C 444.97 747.58 451.59 757.64 447.36 764.34 C 445.24 768.56 439.90 772.70 435.15 769.88 C 425.55 766.07 427.19 750.11 437.32 748.29 Z" />
<path fill="#b9bed2" opacity="0.78" d=" M 27.32 830.29 C 34.97 829.58 41.59 839.64 37.36 846.34 C 35.24 850.56 29.90 854.70 25.15 851.88 C 15.56 848.07 17.19 832.11 27.32 830.29 Z" />
<path fill="#b9bed2" opacity="0.78" d=" M 109.32 830.29 C 116.97 829.58 123.59 839.64 119.36 846.34 C 117.24 850.56 111.90 854.70 107.15 851.88 C 97.55 848.07 99.19 832.11 109.32 830.29 Z" />
<path fill="#b9bed2" opacity="0.78" d=" M 191.32 830.29 C 198.97 829.58 205.59 839.64 201.36 846.34 C 199.24 850.56 193.90 854.70 189.15 851.88 C 179.55 848.07 181.19 832.11 191.32 830.29 Z" />
<path fill="#b9bed2" opacity="0.78" d=" M 273.32 830.29 C 280.97 829.58 287.59 839.64 283.36 846.34 C 281.24 850.56 275.90 854.70 271.15 851.88 C 261.55 848.07 263.19 832.11 273.32 830.29 Z" />
<path fill="#b9bed2" opacity="0.78" d=" M 355.32 830.29 C 362.97 829.58 369.59 839.64 365.36 846.34 C 363.24 850.56 357.90 854.70 353.15 851.88 C 343.55 848.07 345.19 832.11 355.32 830.29 Z" />
<path fill="#b9bed2" opacity="0.78" d=" M 437.32 830.29 C 444.97 829.58 451.59 839.64 447.36 846.34 C 445.24 850.56 439.90 854.70 435.15 851.88 C 425.55 848.07 427.19 832.11 437.32 830.29 Z" />
<path fill="#b9bed2" opacity="0.78" d=" M 27.32 912.29 C 34.97 911.58 41.59 921.64 37.36 928.34 C 35.24 932.56 29.90 936.70 25.15 933.88 C 15.56 930.07 17.19 914.11 27.32 912.29 Z" />
<path fill="#b9bed2" opacity="0.78" d=" M 109.32 912.29 C 116.97 911.58 123.59 921.64 119.36 928.34 C 117.24 932.56 111.90 936.70 107.15 933.88 C 97.55 930.07 99.19 914.11 109.32 912.29 Z" />
<path fill="#b9bed2" opacity="0.78" d=" M 191.32 912.29 C 198.97 911.58 205.59 921.64 201.36 928.34 C 199.24 932.56 193.90 936.70 189.15 933.88 C 179.55 930.07 181.19 914.11 191.32 912.29 Z" />
<path fill="#b9bed2" opacity="0.78" d=" M 273.32 912.29 C 280.97 911.58 287.59 921.64 283.36 928.34 C 281.24 932.56 275.90 936.70 271.15 933.88 C 261.55 930.07 263.19 914.11 273.32 912.29 Z" />
<path fill="#b9bed2" opacity="0.78" d=" M 355.32 912.29 C 362.97 911.58 369.59 921.64 365.36 928.34 C 363.24 932.56 357.90 936.70 353.15 933.88 C 343.55 930.07 345.19 914.11 355.32 912.29 Z" />
<path fill="#b9bed2" opacity="0.78" d=" M 437.32 912.29 C 444.97 911.58 451.59 921.64 447.36 928.34 C 445.24 932.56 439.90 936.70 435.15 933.88 C 425.55 930.07 427.19 914.11 437.32 912.29 Z" />
</g>
</svg>
